<?xml version="1.0" standalone="no"?>
<!DOCTYPE svg PUBLIC "-//W3C//DTD SVG 20010904//EN"
 "http://www.w3.org/TR/2001/REC-SVG-20010904/DTD/svg10.dtd">
<svg version="1.0" xmlns="http://www.w3.org/2000/svg"
 width="1563.000000pt" height="1563.000000pt" viewBox="0 0 1563.000000 1563.000000"
 preserveAspectRatio="xMidYMid meet">
<metadata>
Created by potrace 1.14, written by Peter Selinger 2001-2017
</metadata>
<g transform="translate(0.000000,1563.000000) scale(0.100000,-0.100000)"
fill="#000000" stroke="none">
<path d="M0 9845 c0 -5727 0 -5786 19 -5775 11 5 23 15 26 20 11 18 87 49 170
69 79 20 80 21 154 101 90 98 156 146 331 240 184 98 269 121 697 190 129 20
202 37 252 58 66 28 85 30 61 6 -6 -6 8 -36 40 -84 45 -68 101 -203 147 -355
8 -27 19 -60 24 -73 5 -13 9 -42 9 -65 l1 -42 20 25 c27 32 18 75 -55 245 -7
17 -23 57 -36 90 -24 65 -94 233 -115 278 -15 31 -15 32 73 63 92 32 93 37 73
245 -17 171 -6 209 87 307 50 53 86 79 142 107 164 79 325 97 655 70 393 -31
386 -31 421 -2 l31 26 7 -62 c12 -102 23 -169 40 -232 9 -33 21 -76 26 -95 14
-54 54 -150 62 -150 10 0 10 16 -1 38 -13 26 -42 111 -57 167 -33 125 -42 176
-49 260 -4 55 -12 93 -21 100 -9 7 -16 56 -23 155 -10 130 -23 206 -61 350 -7
25 -14 54 -16 65 -2 11 -9 46 -17 77 -13 54 -13 57 6 62 22 5 22 -5 -3 171 -5
39 -9 109 -10 156 l0 87 37 7 c41 7 63 -10 63 -49 0 -12 7 -43 16 -71 8 -27
44 -165 79 -305 75 -297 111 -381 246 -570 98 -135 361 -405 514 -526 508
-401 1198 -716 1880 -858 298 -61 641 -107 940 -126 680 -42 1096 -39 1775 10
319 23 602 63 969 136 345 69 441 96 696 197 652 258 1206 600 1581 976 104
103 134 126 134 101 0 -32 -206 -247 -365 -380 -233 -196 -550 -396 -875 -553
-384 -185 -637 -279 -960 -356 -521 -124 -1046 -191 -1739 -221 -411 -18 -763
-10 -1235 26 -176 13 -262 23 -578 64 -340 45 -736 150 -1173 310 -383 140
-902 434 -1191 673 -150 124 -397 378 -474 487 -115 164 -196 320 -251 483
-12 34 -25 66 -30 71 -5 6 -10 19 -10 30 -1 14 -3 16 -5 6 -5 -16 15 -83 59
-200 26 -69 116 -247 162 -321 103 -162 431 -509 640 -675 93 -74 504 -354
519 -354 4 0 32 -16 62 -35 104 -67 434 -217 639 -292 439 -159 993 -271 1605
-323 69 -6 179 -16 245 -23 164 -16 1018 -15 1235 1 554 43 876 83 1125 142
44 10 96 21 115 25 19 4 109 25 199 46 90 22 168 38 175 36 39 -15 -361 -134
-634 -188 -50 -10 -192 -32 -350 -54 -97 -13 -190 -23 -575 -57 -226 -21
-1129 -17 -1385 5 -870 75 -1449 197 -1980 419 -379 158 -749 380 -1105 661
-55 44 -107 87 -115 96 -24 25 -50 44 -50 36 0 -21 193 -201 325 -304 138
-108 235 -179 260 -191 5 -3 49 -31 97 -63 48 -31 90 -57 92 -57 2 0 48 -25
102 -56 233 -132 592 -283 879 -369 50 -14 117 -35 150 -45 157 -48 638 -140
845 -160 551 -55 796 -70 1169 -70 397 0 806 23 1186 66 175 19 275 37 440 75
72 17 166 39 210 49 251 58 723 222 964 336 51 24 96 44 99 44 7 0 327 161
401 202 141 78 111 61 341 199 295 176 612 454 769 674 141 197 278 461 315
605 20 76 45 124 69 128 15 3 17 -6 17 -60 0 -41 5 -71 15 -84 17 -23 21 -130
4 -136 -6 -2 -16 -44 -21 -93 -5 -50 -14 -98 -19 -107 -5 -10 -9 -23 -9 -29 0
-7 -11 -35 -24 -63 -57 -122 -58 -124 -51 -241 5 -92 2 -134 -19 -255 -31
-180 -68 -294 -156 -475 -127 -261 -229 -391 -500 -636 -231 -208 -415 -333
-715 -485 -166 -85 -488 -213 -675 -270 -266 -81 -325 -98 -415 -118 -55 -13
-152 -36 -215 -51 -280 -65 -652 -120 -1115 -165 -475 -45 -1164 -39 -1705 15
-178 18 -693 92 -880 125 -319 58 -794 187 -998 271 -53 22 -106 43 -117 46
-29 9 -339 164 -415 208 -36 21 -85 49 -110 63 -258 144 -554 398 -752 642
-141 174 -220 325 -292 551 -43 140 -58 203 -87 392 -13 81 -26 152 -30 158
-4 6 -21 8 -44 3 l-38 -7 26 -14 c30 -15 38 -40 10 -28 -39 16 -91 25 -150 25
-61 0 -208 -23 -248 -40 -11 -4 -36 -14 -55 -21 -19 -7 -59 -26 -88 -42 -78
-43 -221 -176 -222 -204 0 -7 -4 -13 -10 -13 -5 0 -10 -6 -10 -14 0 -7 -7 -19
-15 -26 -20 -17 -18 -4 5 45 11 22 19 46 20 53 0 21 45 85 90 128 57 56 193
121 305 147 11 3 2 5 -20 6 -49 1 -104 -17 -210 -69 -86 -43 -126 -75 -194
-158 -44 -54 -61 -58 -61 -16 0 29 18 60 77 131 33 39 64 61 135 97 88 44 86
50 -7 24 -76 -22 -157 -86 -227 -177 -30 -40 -48 -57 -48 -46 0 17 -2 17 -20
-3 -29 -31 -33 -28 -25 15 8 46 24 77 70 137 40 53 33 61 -12 14 -31 -33 -83
-127 -83 -150 0 -7 -10 -28 -21 -47 -19 -32 -22 -33 -32 -16 -12 22 5 121 29
167 8 16 10 28 4 28 -22 0 -64 -121 -81 -238 -7 -45 -15 -82 -19 -82 -9 0 -29
62 -39 120 -7 45 -7 45 -14 -30 -4 -41 -5 -126 -2 -188 5 -103 3 -114 -15
-134 -33 -36 -25 -41 48 -35 74 6 83 3 101 -30 6 -13 17 -23 24 -23 15 0 77
-78 77 -97 0 -8 -15 -20 -33 -28 -52 -22 -61 -38 -53 -101 6 -54 34 -121 97
-237 39 -72 112 -308 111 -362 0 -22 -4 -93 -7 -157 -15 -250 37 -470 189
-801 30 -64 30 -110 1 -226 -12 -48 -12 -73 5 -210 38 -305 104 -490 305 -856
30 -55 55 -104 55 -108 0 -14 -76 2 -190 39 -57 18 -106 32 -108 30 -2 -2 7
-13 19 -25 25 -24 95 -52 214 -86 72 -20 81 -26 90 -53 6 -17 14 -34 18 -38 4
-4 7 -14 7 -22 0 -12 -3 -12 -15 -2 -27 22 -31 -17 -5 -45 36 -38 6 -41 -112
-10 -114 29 -224 78 -279 124 l-36 30 -6 178 c-4 98 -12 252 -17 343 -5 91
-14 253 -20 360 -12 225 -25 285 -96 472 -19 49 -63 189 -99 311 -35 122 -85
278 -111 347 -65 174 -159 454 -179 531 -9 35 -20 69 -25 74 -4 6 -31 73 -61
150 -29 77 -71 169 -93 205 -23 36 -50 82 -61 103 -26 49 -42 64 -57 49 -7 -7
1 -24 31 -59 22 -27 41 -53 41 -57 0 -4 9 -21 20 -36 44 -61 180 -434 244
-665 13 -50 45 -150 70 -224 25 -73 46 -139 46 -147 0 -18 -25 -30 -144 -71
-110 -37 -407 -108 -498 -118 -75 -9 -132 1 -161 31 -16 16 -46 88 -89 216
-70 207 -147 424 -168 473 -7 17 -19 44 -26 60 -7 17 -32 82 -57 145 -56 145
-112 263 -133 280 -13 11 -17 11 -24 0 -5 -8 2 -26 19 -50 31 -42 48 -83 162
-375 86 -222 119 -312 119 -328 0 -5 -15 -7 -36 -4 -82 14 -128 -102 -68 -172
35 -41 83 -50 129 -22 l36 21 10 -27 c5 -15 19 -57 30 -93 49 -155 65 -184
115 -205 64 -27 120 -20 389 46 88 21 212 55 275 74 63 19 123 35 132 35 20 0
49 -59 51 -104 2 -28 -1 -29 -83 -52 -151 -42 -339 -85 -845 -197 -235 -52
-283 -61 -312 -58 -6 1 -23 31 -37 69 -14 37 -52 137 -85 222 -32 85 -99 277
-149 425 -109 326 -136 400 -195 523 -29 60 -14 -11 32 -150 69 -212 84 -269
74 -279 -4 -4 -28 31 -52 79 -66 131 -153 262 -173 262 -10 0 -18 -2 -18 -4 0
-3 22 -38 49 -79 86 -129 179 -343 166 -379 -7 -18 44 -190 99 -338 56 -149
192 -566 246 -755 18 -60 72 -229 120 -375 48 -146 91 -285 95 -310 3 -25 22
-109 42 -188 19 -78 32 -149 29 -157 -8 -23 -596 -308 -716 -348 -89 -29 -115
-30 -146 -3 -16 13 -39 44 -50 68 -175 354 -219 436 -231 424 -7 -6 46 -144
58 -152 5 -3 9 -12 9 -19 0 -8 15 -38 33 -67 18 -29 51 -93 73 -143 26 -59 54
-105 85 -137 41 -44 50 -48 91 -48 24 0 70 9 100 19 70 24 302 128 433 194
100 50 251 117 264 117 21 0 118 -316 128 -418 5 -51 3 -62 -9 -62 -27 0 -142
-41 -228 -82 -87 -41 -176 -100 -244 -162 -21 -19 -43 -33 -50 -30 -6 2 -19
-9 -29 -25 -10 -17 -39 -54 -65 -83 -75 -82 -123 -150 -118 -165 4 -11 -46
-13 -264 -13 l-270 0 0 -215 0 -215 7815 0 7815 0 0 215 0 215 -22 0 -22 0 22
16 c21 15 22 20 22 203 0 124 -4 191 -11 198 -7 7 -11 44 -10 90 l0 78 -24
-59 c-14 -33 -25 -63 -25 -68 0 -4 -27 -81 -59 -171 -55 -150 -83 -238 -85
-262 -1 -5 11 -8 26 -7 15 2 35 -1 45 -7 13 -7 -37 -10 -175 -11 -128 0 -191
3 -187 10 4 6 24 9 46 8 46 -3 48 0 118 153 19 40 61 130 93 198 32 68 58 125
58 127 0 2 21 47 46 101 112 240 117 257 122 387 4 110 3 118 -12 104 -9 -9
-16 -19 -16 -22 0 -6 -224 -465 -391 -801 -66 -132 -119 -246 -119 -252 0 -10
-58 -13 -262 -12 -157 1 -247 4 -223 9 22 4 62 6 88 4 46 -4 51 -2 85 34 99
102 292 351 292 376 0 29 111 173 236 306 99 105 222 288 304 450 38 76 40 84
40 174 0 59 -4 97 -11 102 -7 4 -9 21 -5 45 4 22 2 39 -3 39 -5 0 -37 -53 -70
-117 -54 -107 -77 -149 -135 -254 -83 -148 -274 -401 -317 -419 -45 -19 -87
-5 -262 84 -204 104 -247 130 -276 160 l-22 24 38 84 c21 46 45 95 54 108 l16
24 39 -31 c44 -35 281 -161 362 -192 30 -12 59 -18 65 -14 7 5 21 8 31 8 15 0
36 39 102 195 46 107 90 209 98 225 35 70 86 187 100 228 8 23 36 90 61 147
59 130 92 216 116 300 25 85 24 92 -6 48 -14 -20 -25 -39 -25 -42 0 -5 -18
-46 -85 -192 -18 -39 -44 -102 -58 -140 -67 -182 -293 -713 -314 -736 -9 -10
-26 -18 -37 -18 -28 1 -377 182 -390 203 -8 13 -5 22 16 44 15 16 49 82 77
148 27 66 72 169 100 228 28 60 51 111 51 113 0 3 11 30 25 60 14 30 25 57 25
59 0 2 11 28 24 57 50 109 135 305 155 354 11 28 29 73 41 100 24 53 26 58 65
154 15 36 31 73 36 82 5 10 28 64 50 120 22 57 68 157 102 223 117 231 148
297 143 309 -2 6 -5 3 -5 -6 -1 -9 -5 -18 -10 -20 -14 -5 -189 -355 -246 -488
-26 -63 -54 -129 -61 -146 -28 -64 -153 -362 -189 -449 -20 -49 -53 -123 -71
-162 -19 -40 -34 -75 -34 -78 0 -2 -11 -28 -24 -57 -13 -29 -43 -96 -66 -148
-133 -300 -193 -420 -209 -420 -8 0 -29 5 -47 12 -28 10 -31 14 -24 37 10 33
66 173 91 229 11 24 38 89 60 145 23 56 67 156 99 222 70 145 82 173 110 247
12 32 26 60 31 64 5 3 7 20 3 39 -4 25 -1 37 14 51 40 37 72 137 92 283 6 40
17 88 25 105 8 17 23 63 34 101 48 170 144 431 205 557 37 76 71 140 77 143
12 8 12 35 -1 35 -6 0 -17 -18 -26 -40 -17 -42 -33 -50 -54 -25 -7 8 -30 18
-52 21 -21 4 -41 10 -44 15 -2 5 4 27 15 50 18 36 19 45 7 67 l-13 25 -16 -24
c-8 -13 -27 -53 -43 -89 -15 -36 -40 -81 -55 -100 -15 -20 -49 -103 -79 -195
-95 -286 -188 -487 -332 -717 -27 -43 -34 -48 -67 -48 -20 0 -77 13 -126 29
-50 16 -157 48 -240 71 -82 23 -186 53 -230 66 -44 13 -143 42 -220 63 -77 22
-168 49 -202 60 -34 11 -90 25 -125 32 -75 14 -88 22 -80 52 7 29 52 97 64 97
5 0 55 -16 110 -35 214 -75 568 -165 646 -165 34 0 53 5 64 18 13 15 40 94 81
237 14 49 14 49 21 20 19 -83 73 -122 153 -110 87 13 128 93 97 188 -24 76
-76 178 -113 225 l-33 40 26 104 c14 56 35 130 46 163 12 33 26 76 31 95 22
73 119 261 140 268 19 7 18 9 -11 37 -19 18 -34 25 -40 19 -13 -13 -83 -157
-106 -219 -10 -27 -23 -59 -29 -71 -6 -11 -53 -149 -105 -305 -156 -472 -184
-549 -211 -581 -24 -30 -29 -31 -100 -31 -80 0 -143 11 -284 48 -49 13 -126
33 -171 45 -124 31 -219 67 -218 82 1 7 32 108 69 223 195 611 267 793 354
903 l41 52 -44 0 c-36 0 -44 -3 -40 -15 3 -8 -24 -76 -60 -151 -36 -74 -66
-138 -66 -142 0 -15 -64 -142 -72 -142 -17 0 -11 29 63 280 12 41 35 104 52
140 17 36 31 81 30 100 0 22 2 26 4 11 10 -52 24 -56 197 -56 205 -1 345 -21
566 -80 122 -33 133 -39 367 -202 136 -95 227 -166 291 -230 100 -98 180 -148
254 -158 23 -4 53 -8 66 -11 l22 -4 0 5815 0 5815 -7815 0 -7815 0 0 -5785z
m8530 5343 c415 -86 390 -81 520 -119 387 -113 723 -256 1055 -449 50 -29 106
-61 125 -72 131 -74 388 -265 575 -427 281 -244 637 -641 808 -901 19 -30 64
-95 98 -145 63 -90 142 -216 194 -310 15 -27 49 -89 76 -136 26 -48 71 -138
99 -200 28 -63 62 -136 75 -164 26 -55 65 -157 96 -250 11 -33 24 -69 29 -80
15 -35 40 -115 50 -163 10 -50 25 -107 41 -158 5 -18 14 -60 19 -95 5 -35 14
-84 20 -109 6 -25 15 -72 20 -105 21 -147 23 -155 48 -180 13 -14 35 -25 48
-25 38 0 88 -29 114 -68 25 -35 25 -37 27 -286 0 -139 -2 -235 -7 -216 l-7 35
-2 -44 c-1 -30 4 -49 17 -60 9 -9 24 -30 32 -46 9 -17 28 -34 45 -39 87 -27
215 -82 251 -108 53 -38 160 -166 180 -215 8 -21 19 -47 24 -58 28 -67 50
-188 43 -245 -3 -30 -2 -50 4 -50 12 0 28 -178 25 -278 -2 -50 2 -83 13 -104
8 -17 15 -48 15 -69 0 -23 13 -61 34 -101 41 -77 56 -143 56 -251 0 -70 -29
-230 -45 -245 -14 -14 -15 32 -1 53 20 30 20 74 0 145 -14 50 -28 155 -43 308
0 6 -5 12 -10 12 -4 0 -9 -77 -10 -170 -1 -94 -6 -181 -11 -193 -8 -21 -9 -21
-9 5 -1 15 -10 50 -21 79 -18 44 -20 65 -15 153 4 55 6 137 6 181 0 94 -31
663 -37 684 -4 11 -7 12 -17 2 -8 -8 -13 -108 -17 -349 -4 -294 -6 -322 -13
-217 -4 66 -12 138 -17 160 -5 22 -10 74 -10 116 0 42 -5 114 -10 160 -35 283
-49 369 -61 369 -13 0 -11 -61 7 -226 18 -164 10 -199 -25 -118 -38 84 -152
204 -270 283 -36 24 -70 49 -74 55 -4 6 -6 64 -5 129 2 75 -1 116 -7 114 -6
-2 -12 -80 -15 -193 -3 -104 -9 -195 -13 -202 -22 -33 -27 15 -27 235 0 130
-3 234 -6 230 -3 -3 -6 -105 -6 -226 -1 -122 -5 -221 -9 -221 -5 0 -9 6 -9 13
-4 451 -14 984 -20 991 -14 15 -30 -4 -30 -35 0 -16 -4 -29 -10 -29 -5 0 -10
14 -10 31 0 29 -2 30 -30 24 -27 -6 -30 -4 -30 19 0 33 -17 76 -30 76 -6 0
-10 -38 -10 -99 0 -55 -4 -102 -9 -105 -25 -16 -34 31 -42 222 -8 208 -28 342
-90 578 -26 103 -125 401 -149 449 -5 11 -18 43 -29 70 -65 170 -333 673 -424
795 -29 40 -153 211 -184 254 -33 46 -184 239 -193 246 -3 3 -16 19 -29 35
-85 111 -311 346 -451 468 -378 331 -821 614 -1240 792 -381 163 -678 245
-1150 319 -315 50 -758 56 -1115 15 -254 -29 -594 -105 -860 -194 -690 -229
-1356 -638 -1866 -1147 -140 -140 -335 -362 -419 -478 -34 -47 -70 -96 -80
-110 -11 -14 -40 -59 -66 -100 -26 -41 -57 -91 -69 -110 -88 -139 -223 -399
-290 -560 -15 -36 -35 -83 -45 -105 -55 -127 -146 -432 -210 -710 -21 -91 -59
-306 -69 -395 -14 -124 -14 -343 1 -375 8 -18 7 -39 -3 -87 l-14 -63 -7 100
c-4 55 -11 123 -17 150 -6 28 -14 70 -18 95 -5 26 -8 -100 -8 -295 0 -578 -3
-2218 -4 -2460 -1 -253 -18 -487 -35 -482 -14 5 -25 143 -32 377 -2 102 -8
194 -13 205 -9 20 -31 322 -31 423 0 41 4 54 18 59 9 4 20 11 23 16 12 18 15
2104 3 2116 -2 2 -6 2 -8 0 -2 -2 -6 -231 -9 -509 -4 -435 -22 -988 -32 -998
-2 -2 -19 -7 -38 -12 l-34 -7 -6 116 c-4 64 -10 285 -13 491 -4 206 -10 382
-15 390 -5 10 -8 -3 -9 -37 0 -45 -3 -52 -22 -55 -33 -5 -35 -28 -2 -28 l27 0
-7 -1222 c-4 -673 -9 -1257 -12 -1298 -7 -106 -36 -159 -49 -87 -9 51 -8 169
3 332 19 288 13 2045 -7 2045 -3 0 -5 -336 -4 -747 1 -518 -1 -751 -9 -760
-16 -19 -327 -18 -354 1 -18 14 -19 36 -25 648 -3 348 -6 634 -7 636 -1 2 -7
0 -12 -3 -6 -4 -10 -232 -10 -650 0 -425 -3 -646 -10 -650 -6 -4 -8 -11 -5
-16 4 -5 1 -17 -4 -26 -9 -16 -10 -16 -11 4 0 12 -8 26 -17 31 -15 9 -17 49
-23 406 -3 217 -9 399 -13 402 -8 9 -7 32 -18 -311 -7 -258 -24 -461 -28 -349
-1 37 -23 86 -34 74 -2 -3 -7 -74 -11 -157 -6 -146 -5 -154 14 -165 22 -14 27
-43 9 -53 -6 -4 -7 -19 -4 -36 5 -22 3 -28 -7 -24 -24 9 -37 41 -63 161 -24
104 -26 133 -23 258 3 108 11 166 30 246 15 58 32 157 38 220 37 372 63 498
130 629 92 180 145 217 327 230 45 3 87 11 93 17 7 7 16 43 20 82 5 39 16 88
25 108 8 20 15 45 15 55 0 11 3 19 8 19 4 0 5 123 2 272 -3 150 -2 274 2 276
5 2 5 21 2 41 -13 84 36 121 162 121 68 0 90 12 97 55 3 17 17 98 31 180 67
396 190 823 323 1120 20 44 45 100 56 125 160 359 396 719 696 1060 428 487
1062 939 1716 1222 72 31 164 68 205 83 125 44 422 133 521 155 52 12 130 30
174 40 44 10 105 21 135 25 30 4 62 11 70 16 8 5 299 7 645 5 522 -2 643 -5
705 -18z m-340 -98 c421 -46 781 -150 1100 -316 218 -115 356 -229 540 -449
174 -209 305 -517 361 -855 21 -122 16 -376 -10 -497 -33 -158 -90 -303 -125
-316 -13 -5 -61 6 -264 62 -203 56 -607 133 -842 160 -240 28 -282 32 -395 42
-351 29 -1065 29 -1435 -1 -424 -34 -732 -75 -1105 -150 -337 -67 -816 -227
-1102 -369 -34 -17 -64 -31 -67 -31 -3 0 -72 -37 -153 -82 -319 -175 -571
-366 -836 -630 -48 -49 -90 -88 -92 -88 -3 0 -5 21 -5 48 0 97 22 220 62 342
36 111 147 405 183 485 7 17 31 74 54 127 41 97 76 172 197 427 35 74 62 136
60 139 -8 7 -125 -183 -206 -333 -18 -33 -46 -85 -63 -115 -55 -98 -134 -268
-197 -425 -83 -205 -166 -504 -211 -760 -18 -104 -29 -138 -77 -225 -26 -47
-60 -111 -77 -142 -16 -31 -34 -57 -40 -57 -15 -1 -9 171 10 319 90 698 397
1412 854 1985 129 163 331 374 462 484 37 31 105 88 151 128 88 74 203 153
222 153 6 -1 -12 -22 -39 -48 -77 -72 -180 -194 -230 -272 -93 -146 -196 -380
-112 -256 72 107 244 327 333 426 176 197 394 375 686 559 194 122 497 257
773 345 132 42 362 104 425 116 454 81 555 90 875 85 132 -2 283 -9 335 -15z
m1470 -454 c103 -27 331 -126 468 -202 235 -131 380 -234 638 -455 203 -174
315 -292 511 -538 86 -108 171 -215 189 -237 60 -75 155 -225 188 -297 19 -40
69 -131 113 -204 68 -112 130 -235 221 -443 11 -25 32 -72 47 -105 93 -209
228 -666 254 -858 14 -99 14 -167 1 -167 -5 0 -10 11 -10 25 0 50 -42 201 -65
237 -14 21 -25 42 -25 48 0 5 -4 10 -10 10 -13 0 -14 11 15 -105 39 -154 68
-236 82 -230 13 4 30 -41 20 -51 -3 -3 2 -33 10 -67 41 -177 63 -319 64 -422
1 -130 -16 -603 -26 -693 -8 -72 -20 -74 -29 -5 -22 153 -122 436 -231 655
-110 219 -238 394 -429 583 -319 316 -536 470 -982 700 -44 23 -119 57 -166
75 -103 38 -121 60 -49 60 65 0 111 17 111 41 0 10 -5 19 -11 19 -5 0 -8 4 -5
9 17 27 -161 90 -549 194 -318 86 -508 128 -735 163 -456 71 -641 91 -1020
115 -213 13 -972 7 -1145 -10 -60 -6 -166 -15 -235 -22 -384 -34 -764 -95
-1020 -163 -52 -14 -106 -28 -120 -32 -111 -27 -373 -123 -506 -185 -49 -22
-111 -52 -139 -64 -72 -34 -169 -89 -173 -97 -2 -5 -9 -8 -16 -8 -7 0 -23 -11
-36 -25 -23 -25 -23 -25 -4 -39 27 -21 11 -41 -63 -81 -34 -18 -88 -53 -120
-77 -32 -24 -121 -88 -198 -141 -279 -192 -550 -441 -711 -652 -145 -191 -306
-506 -389 -762 -22 -65 -41 -172 -48 -263 -1 -19 -6 73 -10 205 -10 351 9 542
79 773 40 132 80 230 118 290 14 23 26 44 26 47 0 11 86 146 154 240 79 110
321 361 456 472 172 141 410 297 615 402 115 59 164 82 320 152 66 30 118 50
160 64 22 7 90 31 150 54 172 64 415 133 665 187 14 3 48 10 75 14 28 5 91 16
140 25 232 41 538 77 915 107 221 17 1038 17 1265 0 192 -15 329 -28 425 -42
36 -5 119 -16 185 -25 279 -38 504 -86 895 -189 222 -58 518 -161 698 -242 29
-13 55 -24 58 -24 6 0 289 -141 334 -167 111 -64 230 -142 394 -258 86 -61
283 -225 341 -284 63 -65 81 -75 71 -38 -4 12 -16 83 -26 157 -43 297 -73 451
-106 550 -20 61 -305 632 -312 626 -3 -3 -1 -11 5 -18 5 -7 15 -31 21 -53 29
-102 35 -152 29 -244 -7 -107 -17 -153 -35 -159 -14 -4 -13 -5 -37 102 -10 44
-31 120 -47 170 -26 81 -46 131 -110 276 -32 71 -131 274 -137 280 -4 3 -14
22 -25 42 -10 20 -27 46 -37 57 -11 11 -19 25 -19 31 0 6 -4 8 -10 5 -6 -3
-10 4 -10 17 0 19 -2 20 -11 8 -9 -13 -10 -12 -5 3 7 23 -63 128 -82 122 -7
-3 -10 0 -7 6 6 9 -17 33 -135 143 -135 125 -285 220 -620 391 -72 36 -178
126 -322 272 -64 65 -144 138 -177 163 -93 70 -89 84 19 56z m-2350 -2476 c8
-5 12 -10 10 -12 -9 -7 -115 -47 -135 -51 -11 -3 4 -5 34 -6 76 -1 60 -10 -24
-12 -39 -2 -73 -7 -76 -11 -7 -11 -94 -24 -254 -38 -272 -24 -603 -71 -820
-116 -66 -14 -142 -29 -170 -34 -43 -7 -297 -72 -450 -114 -156 -43 -516 -178
-670 -251 -38 -19 -118 -61 -177 -94 -59 -33 -110 -56 -113 -51 -10 16 88 110
169 165 265 176 768 360 1266 464 436 90 742 129 1310 165 25 1 54 3 65 4 11
1 27 -2 35 -8z m532 -146 c19 -12 -57 -22 -177 -23 -372 -4 -1130 -79 -1480
-147 -507 -98 -1010 -246 -1310 -384 -38 -18 -101 -47 -140 -65 -38 -17 -104
-51 -145 -75 -41 -23 -97 -55 -123 -69 -26 -15 -57 -35 -68 -44 -10 -9 -25
-17 -32 -17 -6 0 -4 5 6 11 9 5 17 18 17 29 0 17 67 71 160 128 64 39 363 184
475 230 132 54 394 142 525 176 52 13 122 32 155 41 87 23 272 65 330 75 28 5
115 21 195 35 301 53 663 93 945 105 229 10 648 6 667 -6z m2695 -20 c-3 -3
-12 -4 -19 -1 -8 3 -5 6 6 6 11 1 17 -2 13 -5z m-115 -178 c312 -102 446 -163
641 -293 121 -81 297 -236 297 -262 0 -23 -36 -9 -129 48 -53 32 -175 96 -271
141 -274 128 -303 140 -516 215 -87 31 -181 65 -209 75 -27 10 -58 21 -67 24
-37 11 -17 39 52 73 34 17 112 9 202 -21z m-407 -56 c390 -83 899 -297 1260
-529 58 -37 227 -164 256 -192 14 -13 46 -44 73 -67 26 -24 45 -46 42 -50 -3
-3 -14 2 -24 11 -10 10 -26 17 -35 17 -8 0 -19 9 -22 20 -4 11 -11 18 -16 15
-5 -4 -9 1 -9 10 0 9 -4 13 -10 10 -5 -3 -10 -2 -10 2 0 5 -15 17 -32 28 -18
10 -39 25 -46 32 -8 7 -35 27 -60 45 -26 17 -49 35 -52 38 -3 4 -25 18 -50 32
-25 14 -102 59 -171 101 -183 109 -338 184 -534 258 -44 17 -102 39 -128 50
-41 16 -309 97 -427 129 -19 5 -62 17 -95 26 -33 9 -73 22 -90 30 -29 14 -29
14 25 10 30 -2 100 -14 155 -26z m-3087 -27 c-15 -2 -42 -2 -60 0 -18 2 -6 4
27 4 33 0 48 -2 33 -4z m1577 -33 c282 -25 360 -33 515 -54 63 -9 167 -23 230
-32 181 -24 431 -63 478 -74 23 -5 58 -10 77 -10 18 0 36 -4 39 -8 8 -13 153
-54 173 -49 12 3 8 5 -9 6 -15 0 -30 6 -33 11 -3 6 -17 10 -31 10 -13 0 -24 5
-24 10 0 14 6 14 163 -24 153 -38 309 -86 366 -115 20 -10 65 -29 101 -41 87
-30 169 -69 148 -70 -10 0 -34 7 -55 16 -21 9 -49 21 -63 27 -14 5 -33 13 -42
18 -10 5 -25 9 -33 9 -8 0 -43 11 -78 25 -34 14 -80 28 -102 30 -44 6 -42 5
60 -32 39 -13 81 -29 95 -35 14 -6 34 -14 45 -18 95 -36 160 -65 283 -122 143
-66 140 -44 -4 27 -49 24 -82 44 -74 45 25 0 226 -104 207 -108 -18 -4 -24
-22 -7 -22 5 0 47 -22 94 -50 47 -27 87 -50 90 -50 3 0 14 -6 23 -14 52 -42
155 -116 162 -116 4 0 18 -11 31 -25 28 -29 19 -34 -12 -5 -11 10 -35 22 -52
25 -27 6 -65 25 -138 70 -46 28 -328 170 -410 206 -226 99 -515 194 -818 269
-113 27 -221 54 -240 59 -19 5 -66 14 -105 21 -38 6 -86 15 -105 20 -30 8
-170 28 -475 70 -749 102 -1707 96 -2415 -15 -251 -40 -518 -93 -687 -136 -87
-23 -176 -45 -198 -50 -44 -11 -216 -63 -280 -84 -89 -31 -393 -160 -495 -211
-289 -144 -580 -341 -753 -509 -80 -77 -86 -60 -8 22 22 23 41 53 43 65 2 13
13 27 26 33 12 5 20 16 17 22 -2 7 0 13 5 13 9 0 51 35 119 100 156 147 401
301 636 400 20 9 192 81 250 105 38 16 127 46 235 79 47 15 94 30 105 35 11 5
47 16 80 25 33 10 89 26 125 36 245 73 350 101 399 110 31 6 92 17 136 25 134
26 367 55 430 53 l60 -1 -55 -8 c-30 -4 -83 -10 -118 -14 -34 -5 -65 -12 -68
-16 -3 -5 -24 -10 -47 -10 -25 -1 -33 -4 -18 -6 12 -3 89 2 170 11 437 46 648
55 1161 50 329 -3 494 -9 675 -24z m-1046 -189 c56 -5 108 -14 114 -20 7 -7
-28 -28 -117 -70 -207 -98 -385 -226 -666 -477 -146 -131 -358 -346 -450 -457
-36 -43 -73 -88 -83 -100 -11 -12 -44 -60 -74 -107 -31 -47 -65 -100 -77 -117
-19 -30 -26 -33 -71 -33 -69 1 -134 29 -314 135 -103 61 -290 254 -383 395
-180 272 -198 344 -105 414 83 63 408 217 587 278 200 68 518 139 708 157 116
11 800 12 931 2z m-3089 -291 c-8 -5 -19 -10 -25 -10 -5 0 -3 5 5 10 8 5 20
10 25 10 6 0 3 -5 -5 -10z m480 -245 c0 -8 -9 -104 -20 -213 -42 -435 -44
-478 -44 -1062 1 -635 11 -826 64 -1210 14 -105 41 -263 50 -295 4 -16 16 -66
25 -110 10 -44 24 -105 32 -135 8 -30 19 -72 24 -92 21 -89 28 -115 38 -153 6
-22 16 -56 21 -75 19 -72 90 -289 129 -398 204 -568 418 -929 714 -1199 49
-45 67 -53 67 -28 0 9 -41 92 -91 186 -232 438 -341 696 -459 1084 -12 39 -25
88 -30 110 -5 22 -20 85 -35 140 -15 55 -31 122 -35 148 -5 26 -12 56 -15 66
-3 10 -14 71 -25 135 -10 64 -22 120 -25 125 -3 5 -3 15 0 23 6 15 101 24 118
10 7 -5 30 -13 52 -17 22 -4 45 -11 52 -17 7 -5 50 -12 95 -15 46 -2 92 -8
103 -13 11 -4 59 -14 108 -21 48 -7 92 -18 98 -26 7 -7 32 -13 60 -13 26 0 51
-4 54 -10 3 -6 50 -10 104 -10 54 0 111 -4 127 -10 16 -5 249 -12 524 -15 629
-7 612 -7 698 0 42 4 72 3 72 -3 0 -5 143 -11 341 -15 210 -4 345 -10 353 -16
8 -7 87 -10 210 -9 122 0 201 -3 205 -9 10 -16 213 -25 544 -23 212 0 307 -2
302 -10 -4 -7 38 -10 129 -10 74 0 136 4 138 9 2 5 86 12 188 15 102 4 189 11
194 16 6 6 44 10 86 10 42 0 80 4 85 9 12 12 58 23 100 25 17 1 35 5 42 9 8 5
14 -4 19 -30 6 -32 8 -35 16 -18 5 12 6 -8 3 -50 -16 -202 -139 -646 -250
-910 -26 -60 -52 -123 -59 -140 -13 -33 -69 -141 -117 -225 -159 -281 -433
-582 -624 -684 l-35 -19 -83 41 c-391 195 -1021 304 -1657 289 -387 -10 -605
-37 -925 -117 -256 -63 -545 -188 -763 -328 -104 -68 -102 -68 -213 -12 -201
100 -386 235 -554 404 -205 206 -342 406 -491 714 -321 666 -433 1111 -506
2007 -17 208 -16 915 1 1085 38 385 76 674 95 730 9 26 39 55 126 123 63 48
122 91 130 95 8 3 33 18 55 33 45 30 246 138 258 139 4 0 7 -7 7 -15z m-880
-59 c0 -3 -19 -26 -41 -52 -38 -44 -229 -325 -229 -337 0 -3 -20 -40 -45 -81
-25 -42 -45 -79 -45 -81 0 -3 -22 -51 -48 -107 -27 -57 -66 -145 -87 -195 -20
-51 -41 -90 -46 -88 -8 6 30 155 63 245 37 100 115 256 173 346 64 98 194 258
259 316 41 38 46 42 46 34z m7348 -238 c134 -101 135 -102 238 -207 50 -52
106 -117 123 -145 35 -58 40 -102 62 -536 13 -239 5 -937 -10 -1035 -6 -33
-15 -107 -21 -165 -11 -108 -15 -139 -44 -319 -26 -164 -43 -248 -85 -416 -74
-294 -134 -446 -256 -650 -23 -38 -75 -131 -115 -205 -40 -74 -97 -174 -126
-222 -30 -48 -54 -91 -54 -94 0 -11 -141 -206 -219 -304 -102 -128 -291 -317
-401 -402 -140 -109 -243 -181 -327 -233 -142 -86 -319 -175 -348 -175 -36 0
-135 56 -135 76 0 6 62 46 138 89 238 137 407 263 582 436 254 250 448 517
600 824 89 180 101 207 166 405 57 171 113 412 134 573 5 40 16 124 25 187 72
531 70 1672 -4 2260 -6 41 -15 116 -20 165 -6 50 -13 100 -16 112 -5 21 2 53
12 53 3 0 48 -33 101 -72z m-7215 -465 c-4 -126 -8 -491 -7 -813 1 -465 4
-620 17 -755 52 -524 109 -841 213 -1185 36 -118 136 -383 179 -478 14 -29 25
-56 25 -59 0 -19 -159 153 -220 238 -177 246 -273 456 -355 773 -19 76 -46
171 -60 210 -13 39 -29 103 -35 141 -6 39 -16 86 -21 106 -5 20 -9 47 -9 60 0
14 -3 19 -8 12 -4 -6 -7 14 -8 45 0 32 -10 167 -23 302 -12 135 -25 315 -29
400 l-7 155 -5 -175 -6 -175 -2 188 c-1 104 1 186 6 184 4 -3 8 83 8 192 1
198 9 263 45 381 29 94 110 256 161 320 67 86 132 160 141 160 4 0 4 -102 0
-227z m7702 -58 c32 -71 44 -216 51 -625 9 -495 -9 -821 -66 -1195 -40 -258
-47 -294 -131 -600 -6 -22 -21 -71 -34 -110 -12 -38 -44 -139 -71 -222 -35
-110 -53 -153 -64 -153 -9 0 -22 -6 -29 -12 -17 -16 -13 6 23 122 98 311 199
822 245 1230 7 58 16 140 22 184 5 43 14 217 21 387 11 291 4 708 -18 1009 -5
71 -5 74 11 55 10 -11 27 -42 40 -70z m425 -517 c0 -2 3 -64 6 -138 20 -535
24 -582 50 -613 l24 -29 -1 -461 c-1 -254 -4 -507 -8 -562 l-6 -100 -33 0
c-20 -1 -37 5 -42 15 -6 11 -17 1847 -11 1883 1 6 21 11 21 5z m-8880 -35 c16
-9 30 -27 33 -39 2 -13 5 -209 6 -436 3 -488 -12 -1393 -20 -1263 l-5 90 -4
-82 c-1 -46 -3 -89 -4 -95 -1 -7 5 -12 12 -10 21 4 13 -25 -9 -31 l-21 -6 3
-453 4 -453 -32 -3 -33 -3 -1 243 c-1 134 -2 351 -3 483 0 132 5 317 12 412 8
115 12 420 12 918 0 533 3 745 11 745 6 0 24 -7 39 -17z m9268 -803 c2 40 5
51 12 40 5 -8 10 -78 10 -155 0 -78 4 -145 9 -150 11 -12 18 -740 8 -771 -7
-20 -50 -38 -62 -26 -3 3 -5 173 -5 378 1 313 3 374 15 384 17 15 21 155 5
165 -6 4 -9 123 -8 333 l3 327 5 -290 c3 -159 7 -265 8 -235z m-8951 -182 c-4
-95 -7 -204 -8 -243 l-1 -70 -14 50 c-14 53 -31 391 -21 419 4 9 16 16 28 16
l22 0 -6 -172z m9409 27 c3 -8 1 -142 -5 -297 -10 -246 -14 -286 -30 -308 -23
-32 -119 -80 -190 -95 -31 -7 -67 -15 -81 -19 -17 -4 -33 0 -48 12 l-23 18 48
3 c100 5 253 55 253 83 0 9 -19 5 -105 -18 -27 -7 -84 -14 -124 -16 -104 -4
-101 -16 -101 318 0 149 3 286 6 303 l7 31 194 0 c161 0 195 -2 199 -15z m151
-32 c-3 -10 -5 -2 -5 17 0 19 2 27 5 18 2 -10 2 -26 0 -35z m53 -33 c11 -11
20 -23 20 -27 0 -4 -17 -42 -37 -83 -32 -64 -38 -71 -41 -49 -2 15 4 44 12 64
9 21 16 55 16 76 0 45 3 46 30 19z m-10624 -107 c47 -74 157 -182 237 -234 34
-22 65 -45 69 -52 4 -7 8 -53 8 -103 0 -69 -4 -95 -15 -104 -18 -15 -306 -5
-339 12 -11 6 -33 24 -49 39 -15 16 -31 29 -36 29 -10 0 -61 111 -61 134 0 9
-4 24 -9 34 -16 29 -41 90 -41 97 0 15 34 -21 45 -49 l12 -29 22 22 c14 14 20
29 16 40 -9 31 -8 155 3 181 8 19 10 -11 11 -117 1 -78 5 -153 11 -168 5 -14
10 -53 10 -86 0 -33 4 -59 10 -59 6 0 10 81 10 223 0 224 3 247 37 247 7 0 29
-26 49 -57z m9391 -145 c-2 -18 -4 -4 -4 32 0 36 2 50 4 33 2 -18 2 -48 0 -65z
m1120 -72 c-2 -6 -10 -29 -17 -51 -7 -22 -20 -55 -29 -73 -15 -32 -16 -33 -19
-9 -2 14 4 42 12 62 9 21 16 47 16 60 0 12 3 24 6 28 10 9 36 -5 31 -17z
m-9510 -73 c-3 -10 -5 -4 -5 12 0 17 2 24 5 18 2 -7 2 -21 0 -30z m6813 -319
c0 -8 -5 -12 -10 -9 -6 4 -8 11 -5 16 9 14 15 11 15 -7z m1938 -519 c2 -432 0
-514 -12 -530 -12 -17 -17 -18 -28 -7 -10 10 -13 115 -13 525 0 282 1 516 3
520 2 5 14 7 25 5 l22 -3 3 -510z m77 415 c3 -5 14 -10 24 -10 22 0 57 -38 64
-70 3 -14 9 -35 12 -47 7 -22 5 -23 -48 -23 -66 0 -79 14 -76 83 1 23 0 47 -1
52 -6 25 12 36 25 15z m-9247 -469 c1 -334 -1 -468 -9 -477 -7 -9 -33 -14 -70
-14 -53 0 -59 2 -65 24 -9 36 1 878 10 899 12 25 43 37 91 34 l40 -2 3 -464z
m212 397 c1 -18 7 -44 15 -58 8 -14 15 -56 16 -95 l2 -70 7 76 c4 42 11 83 16
90 4 7 7 26 6 42 l-2 28 92 -3 c84 -3 93 -5 96 -23 8 -57 13 -67 29 -61 9 4
20 1 24 -6 5 -8 10 -3 14 15 4 15 11 27 16 27 14 0 26 -30 58 -153 40 -153 82
-260 191 -482 117 -238 205 -371 383 -582 20 -24 37 -51 37 -60 0 -18 2 -20
131 -113 169 -122 201 -166 205 -292 2 -43 8 -96 15 -120 16 -61 16 -174 -1
-235 -11 -43 -19 -54 -42 -62 -15 -6 -28 -17 -28 -25 0 -18 -16 -21 -25 -5 -4
5 6 29 22 52 24 36 28 52 28 107 0 78 -35 244 -64 304 -12 23 -37 61 -56 83
-47 55 -226 182 -260 185 l-27 3 27 21 28 22 -84 121 c-46 67 -128 186 -182
264 -124 180 -232 403 -277 572 -22 83 -65 192 -81 210 -19 19 -19 18 -21 -75
0 -52 -2 -99 -3 -105 -2 -5 -3 -55 -4 -109 0 -55 -3 -97 -6 -95 -7 7 -13 120
-16 289 -1 85 -4 142 -6 125 -3 -16 -8 -34 -13 -40 -4 -5 -11 -54 -15 -108
l-7 -98 -84 2 c-69 2 -87 0 -104 -16 -20 -18 -20 -18 -20 103 0 113 -1 122
-19 122 -26 0 -31 -25 -31 -185 0 -148 -8 -245 -20 -245 -4 0 -8 30 -9 67 -1
37 -4 70 -6 74 -3 3 -5 125 -5 269 -1 275 -1 279 43 280 13 0 17 -8 17 -32z
m-444 -35 c-10 -11 -25 18 -18 35 4 13 8 11 15 -6 6 -12 7 -25 3 -29z m9164
37 c0 -5 -7 -10 -15 -10 -8 0 -15 5 -15 10 0 6 7 10 15 10 8 0 15 -4 15 -10z
m-33 -31 c15 -5 31 -16 35 -22 9 -14 11 -192 2 -234 -5 -26 -9 -28 -39 -25
-21 3 -36 11 -39 21 -9 33 -18 211 -11 241 7 33 11 35 52 19z m-77 -14 c12
-14 10 -109 -5 -229 -7 -59 -11 -65 -29 -41 -7 10 -18 15 -23 12 -13 -8 -27
20 -24 46 1 9 -4 17 -13 17 -10 0 -13 -6 -10 -15 4 -9 0 -15 -10 -15 -9 0 -19
0 -23 -1 -17 -1 -13 20 4 24 13 3 11 5 -7 6 -21 1 -26 -4 -28 -26 -5 -63 -20
-38 -26 45 -8 95 -1 157 18 170 6 4 43 10 81 13 39 3 73 6 76 7 4 1 12 -5 19
-13z m-8975 -1081 c6 -100 5 -133 -4 -139 -42 -25 -60 115 -71 555 -5 201 -12
389 -15 418 -5 41 -4 52 8 52 16 0 27 48 27 122 0 34 5 50 18 57 16 9 17 -17
23 -462 3 -260 10 -531 14 -603z m9525 314 c-5 -37 -10 -165 -10 -286 0 -174
-3 -222 -14 -238 -10 -13 -18 -16 -25 -9 -18 19 -24 243 -16 711 l7 468 29 27
c19 18 30 39 31 61 2 18 4 -124 6 -317 1 -205 -2 -378 -8 -417z m-8651 586
c23 -58 61 -144 86 -192 46 -89 55 -122 31 -122 -8 0 -32 48 -59 118 -25 64
-61 151 -81 193 -19 42 -39 94 -45 115 l-10 39 19 -23 c10 -12 37 -70 59 -128z
m7842 -17 c-8 -8 -11 6 -11 45 0 83 14 106 18 29 2 -36 -2 -69 -7 -74z m365
-335 c-4 -3 -11 -1 -17 5 -7 7 -6 19 3 39 l13 29 3 -34 c2 -18 1 -36 -2 -39z
m-7986 -84 c28 -51 25 -56 -10 -20 -19 20 -30 42 -30 59 0 31 6 26 40 -39z
m95 -167 c25 -38 45 -73 45 -77 0 -9 -56 68 -80 112 -33 59 -12 37 35 -35z
m-922 -80 c4 -4 14 -54 23 -112 40 -275 111 -457 272 -699 107 -161 252 -330
390 -458 128 -117 163 -145 342 -269 215 -148 373 -240 627 -363 172 -84 196
-94 298 -130 44 -15 118 -42 165 -59 87 -32 369 -113 520 -149 89 -22 452 -87
530 -96 79 -9 212 -25 310 -36 52 -6 187 -17 300 -23 l205 -12 0 -40 0 -40
-95 -3 c-111 -4 -421 13 -635 34 -256 25 -668 93 -840 139 -196 52 -260 71
-420 126 -708 241 -1278 597 -1655 1034 -172 199 -294 431 -339 640 -5 22 -23
90 -41 150 -45 156 -80 300 -80 329 0 35 36 58 80 50 19 -4 38 -10 43 -13z
m130 -100 c11 -1 89 -167 123 -261 32 -90 117 -254 192 -369 107 -167 346
-436 502 -566 71 -59 314 -235 325 -235 3 0 24 -12 47 -26 227 -144 822 -414
1043 -474 17 -4 75 -22 130 -38 156 -47 281 -77 530 -127 127 -25 246 -52 265
-60 34 -14 34 -14 -45 -14 -87 -1 -286 20 -430 45 -294 51 -783 194 -1005 294
-147 66 -387 189 -460 235 -22 14 -41 25 -43 25 -8 0 -166 98 -262 162 -145
97 -255 187 -386 318 -208 207 -340 382 -441 585 -89 180 -174 468 -148 500 5
6 20 11 32 9 13 -1 27 -3 31 -3z m947 -48 c8 -10 31 -38 50 -63 19 -25 45 -55
57 -68 29 -29 30 -52 2 -26 -26 24 -159 198 -159 209 0 7 11 -4 50 -52z m-316
-27 c11 -25 16 -63 16 -138 0 -57 5 -175 10 -263 23 -348 76 -520 197 -636 97
-93 311 -249 468 -341 33 -20 84 -50 113 -67 29 -17 54 -31 56 -31 1 0 59 -30
127 -67 69 -38 137 -75 153 -83 52 -27 2 -23 -60 5 -322 142 -620 317 -846
496 -128 102 -376 369 -465 499 -79 117 -163 259 -163 275 0 14 81 -75 115
-126 92 -138 282 -379 329 -418 23 -19 21 4 -3 68 -47 117 -77 279 -92 494
-10 136 -6 338 7 359 10 16 22 8 38 -26z m423 -166 c11 -16 10 -18 -1 -14 -15
6 -30 34 -18 34 4 0 13 -9 19 -20z m6701 -44 c-7 -8 -15 -12 -17 -11 -5 6 10
25 20 25 5 0 4 -6 -3 -14z m-100 -65 c-7 -11 -19 -23 -27 -26 -14 -6 -10 2 24
41 16 18 18 8 3 -15z m31 -12 c-19 -11 -24 -3 -8 14 8 9 16 11 18 5 2 -6 -3
-14 -10 -19z m-36 -36 c-7 -3 -13 -15 -13 -28 0 -13 -11 -36 -23 -52 -53 -63
-111 -195 -132 -302 -11 -52 -25 -18 -25 60 0 69 27 149 71 211 11 15 17 28
12 28 -14 0 -59 -61 -93 -123 -55 -105 -188 -258 -269 -313 -55 -37 -123 -84
-203 -142 -121 -87 -264 -180 -326 -211 -70 -35 -145 -43 -183 -18 -13 9 -39
22 -57 28 -45 15 -40 27 16 35 79 11 353 120 517 206 58 30 167 101 230 149
59 46 161 156 200 217 22 35 55 86 74 115 39 60 120 147 137 147 7 0 10 -8 7
-20 -7 -26 0 -25 33 5 15 14 30 22 33 19 3 -4 0 -9 -6 -11z m87 -22 c0 -5 2
-15 5 -23 3 -7 -10 -29 -29 -50 l-33 -36 -2 -134 c-2 -142 -12 -178 -31 -107
-6 24 -16 59 -22 77 -21 70 20 232 59 232 7 0 13 6 13 13 0 14 20 37 32 37 4
0 8 -4 8 -9z m-6793 -66 c100 -42 223 -157 223 -208 -1 -18 -9 -13 -48 30 -51
56 -109 102 -185 146 -26 16 -45 32 -42 38 8 12 9 12 52 -6z m363 -23 c0 -8
-1 -13 -3 -11 -1 2 -9 12 -16 22 -12 15 -12 17 3 11 9 -3 16 -13 16 -22z
m7492 6 c3 -26 43 -33 43 -9 0 8 6 16 13 19 6 2 12 -2 12 -10 0 -15 -27 -91
-55 -153 -10 -22 -23 -51 -29 -65 -21 -48 -68 -120 -78 -120 -7 0 -8 23 -4 68
7 64 10 82 36 182 26 98 55 139 62 88z m-7383 -93 c30 -27 91 -84 135 -126
135 -128 318 -273 420 -332 40 -24 58 -41 31 -30 -57 23 -136 72 -285 176
-183 128 -255 183 -314 240 -41 40 -68 43 -59 8 3 -12 1 -21 -6 -21 -12 0 -15
88 -5 127 7 27 11 25 83 -42z m6321 20 c0 -19 -3 -35 -7 -35 -5 0 -7 15 -6 32
2 39 2 38 8 38 3 0 5 -16 5 -35z m-6814 -25 c8 0 14 -8 14 -18 0 -10 8 -25 18
-33 11 -9 26 -26 35 -39 9 -13 24 -24 34 -25 23 -1 43 -13 43 -25 0 -5 -14 -7
-32 -3 -35 7 -108 72 -108 97 0 9 -6 16 -14 16 -8 0 -13 11 -13 28 0 15 2 21
4 15 3 -7 11 -13 19 -13z m3669 5 c157 -14 335 -36 445 -55 102 -18 267 -51
290 -59 14 -5 52 -16 85 -26 180 -50 415 -148 550 -229 44 -26 191 -132 205
-146 3 -3 24 -20 48 -37 23 -17 70 -56 103 -88 57 -55 60 -59 49 -85 -6 -15
-22 -33 -36 -40 -13 -8 -24 -17 -24 -22 0 -4 -7 -8 -15 -8 -8 0 -15 5 -15 10
0 6 -7 10 -15 10 -8 0 -15 4 -15 8 0 12 -161 169 -210 204 -25 18 -47 35 -50
38 -22 24 -188 123 -295 174 -281 138 -535 201 -1016 256 -148 17 -657 14
-829 -4 -562 -60 -1034 -226 -1385 -486 -76 -56 -193 -173 -205 -205 -16 -41
-31 -30 -24 18 4 23 8 44 10 45 5 7 -40 52 -53 52 -80 0 256 244 516 374 179
91 447 189 586 216 22 4 85 17 140 28 163 33 317 54 485 65 141 10 525 5 675
-8z m2815 -190 c0 -8 -4 -15 -10 -15 -5 0 -7 7 -4 15 4 8 8 15 10 15 2 0 4 -7
4 -15z m0 -90 c0 -8 -4 -15 -10 -15 -5 0 -10 7 -10 15 0 8 5 15 10 15 6 0 10
-7 10 -15z m-5680 -153 c85 -46 173 -95 195 -108 22 -13 71 -35 109 -49 86
-32 130 -55 122 -63 -24 -24 -130 -41 -141 -22 -3 6 -14 10 -24 10 -10 0 -31
7 -47 15 -38 19 -43 11 -13 -21 23 -26 23 -26 2 -13 -13 8 -23 17 -23 21 0 5
-4 8 -9 8 -18 0 -227 132 -289 182 -54 44 -122 133 -122 161 0 9 38 -10 240
-121z m5591 28 c-30 -26 -49 -26 -26 0 10 11 25 20 34 20 12 -1 10 -5 -8 -20z
m52 -17 c-9 -24 -33 -48 -33 -33 0 17 20 50 30 50 5 0 6 -8 3 -17z m66 -35 c0
-33 -2 -38 -9 -23 -12 28 -12 65 0 65 6 0 10 -19 9 -42z m-169 12 c0 -5 -4
-10 -9 -10 -6 0 -13 5 -16 10 -3 6 1 10 9 10 9 0 16 -4 16 -10z m-5665 -81
c22 -12 54 -30 70 -39 34 -17 87 -50 203 -125 103 -67 396 -235 409 -235 2 0
37 -16 76 -36 288 -145 773 -278 1272 -350 182 -27 206 -28 595 -28 326 0 432
3 545 17 570 71 884 157 1490 408 102 42 388 188 463 235 31 21 72 43 90 51
17 7 32 17 32 22 0 5 18 17 40 27 22 10 40 21 40 26 0 4 7 8 15 8 8 0 15 6 16
13 0 9 2 9 5 0 3 -6 -4 -21 -15 -32 -19 -19 -127 -91 -136 -91 -3 0 -37 -21
-76 -46 -63 -40 -299 -164 -313 -164 -3 0 -37 -15 -76 -34 -39 -19 -87 -40
-108 -47 -20 -6 -48 -17 -62 -24 -42 -22 -111 -51 -190 -79 -41 -15 -86 -32
-100 -38 -14 -5 -45 -16 -70 -24 -25 -8 -54 -19 -65 -24 -44 -19 -212 -69
-365 -109 -117 -31 -377 -81 -465 -91 -329 -35 -398 -40 -655 -40 -301 0 -705
29 -848 60 -26 6 -68 15 -94 20 -241 50 -554 136 -683 190 -11 4 -33 13 -50
18 -94 32 -300 118 -410 172 -112 55 -164 86 -375 220 -102 65 -199 125 -216
133 -49 25 -95 73 -88 92 6 14 10 13 33 -8 14 -14 44 -35 66 -48z m5719 63 c9
-14 -46 -52 -199 -136 -11 -6 -35 -22 -53 -35 -18 -13 -35 -22 -36 -20 -2 2
-6 27 -8 56 -5 48 -3 52 19 57 12 4 23 11 23 17 0 7 10 5 25 -5 13 -9 32 -17
42 -17 17 -1 17 -2 1 -6 -10 -2 -18 -9 -18 -14 0 -6 14 -2 30 8 26 15 28 19
13 25 -10 4 0 5 22 1 35 -5 38 -4 28 9 -17 19 -5 30 18 17 20 -10 28 4 9 16
-5 3 -10 10 -10 16 0 14 27 11 34 -3 3 -9 8 -8 16 5 12 18 35 23 44 9z m-194
-42 c0 -5 -5 -10 -11 -10 -5 0 -7 5 -4 10 3 6 8 10 11 10 2 0 4 -4 4 -10z
m2340 -34 c124 -21 203 -43 278 -78 121 -57 177 -119 222 -243 12 -33 40 -214
40 -260 -1 -25 -2 -27 -11 -12 -6 9 -14 15 -19 12 -13 -8 -19 21 -29 126 -5
51 -14 95 -19 97 -6 2 -21 20 -34 40 -51 84 -151 171 -183 158 -7 -2 -44 10
-82 29 -125 61 -262 96 -371 93 l-77 -1 65 -7 c100 -12 153 -21 175 -30 11 -5
42 -16 69 -26 66 -24 161 -87 216 -143 25 -25 41 -43 36 -38 -6 4 -17 7 -25 7
-9 0 -62 23 -119 50 -57 28 -112 50 -123 50 -10 0 -19 5 -19 10 0 6 -8 10 -17
10 -9 0 14 -21 53 -46 81 -54 104 -74 86 -74 -7 0 -23 6 -35 14 -29 19 -127
52 -207 70 -76 18 -251 21 -334 5 -105 -19 -112 11 -11 47 34 12 94 19 190 23
140 6 140 6 70 15 -82 11 -236 9 -281 -3 -18 -5 -37 -5 -45 0 -35 23 97 87
221 108 85 13 226 12 320 -3z m-7253 -42 c-3 -3 -12 -4 -19 -1 -8 3 -5 6 6 6
11 1 17 -2 13 -5z m4210 -9 c-37 -19 -79 -23 -84 -8 -5 13 17 20 72 22 l40 1
-28 -15z m-6804 -59 c40 -20 51 -42 16 -33 -40 11 -333 -21 -398 -43 -71 -24
-178 -78 -235 -121 -22 -16 -42 -26 -45 -24 -16 16 196 195 231 195 8 0 18 4
24 9 44 43 331 55 407 17z m2507 -71 c0 -25 -14 -34 -24 -16 -8 12 3 41 15 41
5 0 9 -11 9 -25z m4340 5 c0 -5 -5 -10 -11 -10 -5 0 -7 5 -4 10 3 6 8 10 11
10 2 0 4 -4 4 -10z m-6847 -31 c53 -12 73 -31 45 -42 -8 -3 -6 -6 5 -6 9 -1
17 -5 17 -9 0 -5 -64 -8 -142 -8 -104 1 -163 -4 -214 -16 -91 -23 -220 -77
-270 -114 -69 -51 -184 -174 -184 -196 0 -4 -4 -8 -8 -8 -4 0 -6 16 -4 35 2
19 8 35 13 35 5 0 9 7 9 15 0 51 100 170 188 222 78 47 159 87 202 99 55 16
257 12 343 -7z m2561 -28 c-2 -3 -12 3 -22 13 -16 17 -16 18 5 5 12 -7 20 -15
17 -18z m7161 10 c79 -19 194 -76 195 -97 0 -17 48 -57 59 -50 7 4 8 1 5 -8
-5 -14 -9 -14 -33 2 -27 19 -77 42 -89 42 -3 0 10 -14 31 -31 52 -43 39 -48
-23 -10 -112 69 -327 110 -470 92 -102 -14 -100 -14 -100 13 0 13 6 28 13 34
42 35 287 43 412 13z m-7028 -77 c-3 -3 -12 -4 -19 -1 -8 3 -5 6 6 6 11 1 17
-2 13 -5z m-2679 -27 c31 -9 39 -16 31 -24 -8 -8 -4 -15 17 -27 28 -14 23 -15
-91 -16 -161 0 -326 -34 -428 -87 -16 -8 -36 -12 -44 -9 -10 4 -13 2 -10 -8 4
-10 1 -13 -9 -9 -18 7 -83 -36 -153 -101 -36 -35 -50 -43 -41 -26 7 13 19 30
26 38 7 7 30 33 50 57 68 84 198 168 314 206 67 22 272 25 338 6z m2729 7 c-3
-3 -12 -4 -19 -1 -8 3 -5 6 6 6 11 1 17 -2 13 -5z m6944 -23 c84 -27 184 -82
240 -132 43 -39 44 -39 14 -33 -16 4 -36 11 -42 16 -7 6 -19 8 -26 5 -8 -3
-52 10 -99 29 -110 44 -224 64 -370 64 -64 0 -119 4 -122 9 -11 17 13 59 36
64 13 3 86 4 163 3 111 -2 154 -8 206 -25z m-7187 -36 c35 -19 73 -35 86 -35
13 0 51 -13 84 -29 125 -59 117 -56 439 -172 60 -21 119 -39 132 -39 13 0 26
-4 29 -9 3 -5 16 -11 28 -14 13 -2 86 -21 163 -41 241 -63 410 -93 691 -121
359 -36 746 -38 1027 -5 48 5 129 15 180 21 50 5 107 13 125 16 26 4 31 2 26
-10 -3 -10 1 -17 13 -20 10 -3 4 -5 -14 -6 -17 0 -35 -5 -38 -11 -13 -20 -230
-60 -329 -60 -62 0 -189 -17 -273 -36 -74 -17 -531 -19 -768 -4 -306 20 -651
69 -910 131 -317 75 -508 137 -620 201 -102 58 -114 68 -120 101 -12 67 -13
122 -1 130 8 5 6 10 -6 18 -17 9 -25 29 -12 29 3 0 34 -16 68 -35z m359 8 c-7
-2 -19 -2 -25 0 -7 3 -2 5 12 5 14 0 19 -2 13 -5z m67 -23 c24 -15 7 -18 -25
-4 -23 10 -25 13 -10 13 11 1 27 -3 35 -9z m80 -29 c0 -5 -9 -7 -20 -4 -11 3
-20 7 -20 9 0 2 9 4 20 4 11 0 20 -4 20 -9z m6966 -6 c10 -9 11 -15 4 -15 -6
0 -18 7 -26 15 -10 9 -11 15 -4 15 6 0 18 -7 26 -15z m-9976 -18 c63 -12 65
-13 68 -44 4 -36 0 -37 -133 -47 -89 -6 -293 -59 -390 -101 -56 -24 -70 -28
-90 -26 -15 1 -17 0 -7 -7 11 -7 10 -11 -5 -17 -29 -12 -64 -15 -57 -4 3 6 27
33 52 60 78 84 210 162 321 188 53 13 167 12 241 -2z m3053 6 c-7 -2 -19 -2
-25 0 -7 3 -2 5 12 5 14 0 19 -2 13 -5z m6617 -22 c98 -35 149 -61 144 -75 -3
-7 7 -21 21 -32 42 -30 95 -84 84 -84 -6 0 -30 14 -55 30 -99 69 -287 117
-484 125 -122 5 -140 14 -104 50 15 15 35 17 173 13 128 -4 168 -9 221 -27z
m-6515 -7 c28 -9 58 -20 67 -25 10 -5 29 -9 42 -9 14 0 28 -4 31 -10 3 -5 18
-11 33 -11 25 -2 25 -2 3 -6 -13 -3 -28 0 -34 6 -6 6 -23 11 -37 11 -15 0 -30
3 -34 7 -4 4 -28 13 -54 21 -26 7 -60 17 -77 21 -21 6 -24 9 -10 10 11 1 43
-6 70 -15z m6760 -45 c11 -17 -1 -21 -15 -4 -8 9 -8 15 -2 15 6 0 14 -5 17
-11z m-6478 -35 c-3 -3 -12 -4 -19 -1 -8 3 -5 6 6 6 11 1 17 -2 13 -5z m50
-10 c-3 -3 -12 -4 -19 -1 -8 3 -5 6 6 6 11 1 17 -2 13 -5z m-3432 -25 c35 -9
74 -41 75 -60 0 -4 -46 -12 -102 -19 -280 -32 -449 -80 -587 -168 -33 -21 -51
-28 -48 -18 4 10 1 13 -9 9 -7 -3 -14 -9 -14 -14 0 -5 -18 -28 -40 -50 -22
-23 -40 -45 -40 -49 0 -4 -9 -17 -20 -30 -30 -34 -26 -1 5 44 14 20 25 39 25
41 0 3 30 36 68 74 133 136 307 218 512 241 99 11 131 11 175 -1z m3508 4 c-7
-2 -21 -2 -30 0 -10 3 -4 5 12 5 17 0 24 -2 18 -5z m5997 -3 c64 -10 217 -75
252 -107 14 -13 15 -17 4 -29 -15 -14 -33 -12 -221 34 -102 25 -156 31 -278
33 -53 1 -100 6 -103 11 -12 18 32 49 82 57 71 12 189 12 264 1z m856 -45 c9
-8 25 -15 36 -15 17 0 19 -2 7 -16 -7 -8 -25 -22 -41 -30 -16 -8 -41 -32 -57
-54 -16 -22 -31 -37 -34 -33 -10 10 22 74 49 100 18 16 23 29 19 43 -8 24 1
26 21 5z m-6589 -1 c-3 -3 -12 -4 -19 -1 -8 3 -5 6 6 6 11 1 17 -2 13 -5z
m6377 -11 c3 -10 9 -25 12 -33 3 -8 -4 -4 -15 9 -22 25 -27 41 -12 41 5 0 11
-8 15 -17z m-6257 -9 c-3 -3 -12 -4 -19 -1 -8 3 -5 6 6 6 11 1 17 -2 13 -5z
m6677 -9 c96 -24 114 -34 125 -67 14 -38 14 -38 -2 -38 -12 0 -26 -25 -57
-108 -9 -26 -37 -96 -62 -157 -25 -60 -64 -173 -87 -249 -23 -77 -43 -141 -44
-142 -1 -1 -14 0 -28 3 -49 9 -46 92 11 291 18 62 33 139 33 171 2 55 -1 62
-31 90 -17 17 -36 31 -42 31 -14 0 -13 8 10 78 38 115 36 112 76 112 20 0 64
-7 98 -15z m-10495 -70 c39 -20 32 -35 -17 -36 -20 0 -30 -3 -22 -6 40 -13 80
-35 80 -43 0 -4 -17 -6 -37 -3 -57 7 -296 -15 -361 -33 -147 -42 -244 -80
-320 -126 -45 -28 -85 -48 -88 -45 -4 3 3 21 14 39 72 116 292 237 487 267 84
14 226 6 264 -14z m9342 5 c29 -6 85 -25 123 -42 78 -35 179 -98 157 -98 -7 0
-11 -6 -8 -14 4 -10 -14 -6 -61 14 -124 52 -298 90 -419 91 -47 1 -63 4 -63
15 0 8 1 14 3 14 1 0 20 7 42 15 47 17 151 19 226 5z m757 -21 c-3 -8 -7 -3
-11 10 -4 17 -3 21 5 13 5 -5 8 -16 6 -23z m-10870 -9 c-7 -11 -18 -22 -25
-25 -9 -3 -8 4 3 20 19 29 40 34 22 5z m6249 -36 c-3 -3 -12 -4 -19 -1 -8 3
-5 6 6 6 11 1 17 -2 13 -5z m4643 -46 c0 -58 -17 -56 -20 2 -3 46 -2 50 10 50
6 0 10 -23 10 -52z m-788 -2 c96 -19 223 -68 295 -115 58 -38 126 -105 116
-114 -2 -3 -35 14 -71 37 -91 58 -183 100 -267 121 -59 14 -285 45 -334 45
-25 0 4 21 41 30 53 13 141 11 220 -4z m-9321 -37 c35 -11 73 -26 99 -39 8 -4
15 -16 15 -26 0 -17 -8 -19 -75 -20 -91 -1 -236 -27 -480 -89 -24 -6 -24 -6 5
19 17 14 33 26 38 26 4 0 7 5 7 10 0 6 -6 10 -12 10 -20 0 -198 -94 -197 -103
0 -11 -41 -47 -53 -47 -6 0 -45 -36 -89 -81 -45 -46 -79 -74 -79 -65 0 9 5 16
10 16 6 0 10 6 10 14 0 8 9 18 21 21 11 4 18 9 16 12 -3 2 2 12 11 22 27 28
67 75 75 88 5 7 0 10 -15 6 -41 -8 82 100 159 140 62 32 170 73 238 90 40 9
263 7 296 -4z m10035 -59 c3 -14 9 -33 15 -42 5 -10 9 -37 9 -60 l-1 -43 -14
45 c-8 25 -22 66 -30 91 -8 26 -15 53 -15 60 1 21 30 -21 36 -51z m-10939
-102 c-3 -8 -6 -5 -6 6 -1 11 2 17 5 13 3 -3 4 -12 1 -19z m953 13 l45 -8 -45
-8 -45 -8 47 -16 c48 -16 76 -36 66 -46 -3 -3 -65 -10 -137 -15 -73 -5 -137
-12 -142 -16 -6 -4 -48 -12 -93 -19 -165 -27 -193 -34 -264 -71 -208 -107
-358 -340 -386 -599 -2 -22 -3 -2 -1 45 4 125 54 267 136 390 126 187 376 341
604 373 52 7 168 6 215 -2z m9734 -87 c3 -8 2 -12 -4 -9 -6 3 -10 10 -10 16 0
14 7 11 14 -7z m49 -45 c40 -46 87 -117 87 -131 0 -8 4 -18 9 -23 16 -18 41
-108 40 -144 l-1 -36 -8 30 c-19 71 -56 160 -81 197 -11 14 -19 33 -19 42 0 8
-13 29 -30 46 -16 17 -30 33 -30 35 0 12 17 3 33 -16z m-9866 -30 c26 -10 26
-12 8 -19 -11 -4 -49 -10 -85 -14 -61 -7 -130 -30 -222 -74 -15 -6 -8 7 15 30
23 25 98 61 157 77 49 13 94 13 127 0z m-850 -46 c-3 -10 -5 -2 -5 17 0 19 2
27 5 18 2 -10 2 -26 0 -35z m981 -47 c32 -11 33 -12 15 -28 -10 -9 -60 -23
-118 -33 -119 -20 -199 -39 -280 -67 -71 -25 -187 -79 -196 -90 -3 -5 -13 -6
-21 -3 -9 4 -34 -5 -57 -19 -107 -68 6 44 128 126 89 61 144 86 236 109 82 20
244 23 293 5z m-1001 -43 c-3 -10 -5 -4 -5 12 0 17 2 24 5 18 2 -7 2 -21 0
-30z m1000 -59 c-3 -3 -12 -4 -19 -1 -8 3 -5 6 6 6 11 1 17 -2 13 -5z m43 -57
c19 -8 44 -22 55 -31 19 -16 19 -16 -10 -11 -25 5 -27 4 -12 -5 31 -20 8 -30
-71 -30 -88 0 -249 -22 -336 -45 -33 -9 -66 -13 -73 -11 -7 3 -13 1 -13 -4 0
-6 -8 -10 -18 -10 -10 0 -22 -4 -27 -9 -10 -8 -124 -51 -138 -51 -3 0 -3 8 0
18 7 16 6 16 -11 0 -9 -10 -25 -18 -33 -18 -11 0 -7 8 13 25 16 14 32 25 36
25 4 0 13 6 21 14 51 52 210 133 302 156 60 14 273 6 315 -13z m34 -153 c19
-7 19 -8 0 -15 -10 -4 -32 -8 -49 -9 l-30 -2 37 -12 c58 -18 54 -24 -19 -30
-37 -4 -98 -11 -135 -16 -37 -6 -83 -10 -103 -10 -20 0 -76 -10 -125 -21 -49
-12 -97 -18 -106 -15 -43 17 79 94 198 126 59 16 96 19 193 16 66 -2 129 -7
139 -12z m9743 -66 c-3 -7 -5 -2 -5 12 0 14 2 19 5 13 2 -7 2 -19 0 -25z
m-10424 -2 c4 -10 1 -13 -9 -9 -7 3 -14 9 -14 14 0 14 17 10 23 -5z m-73 -24
c0 -5 -10 -17 -21 -28 -33 -29 -112 -134 -131 -174 -12 -24 -17 -29 -17 -15 0
28 46 103 103 169 46 53 66 67 66 48z m-150 -18 c0 -13 -58 -114 -65 -114 -6
0 9 51 16 56 5 3 9 14 9 25 0 10 5 19 10 19 6 0 10 7 10 15 0 8 5 15 10 15 6
0 10 -7 10 -16z m934 -20 c75 -19 82 -25 56 -49 -16 -15 -45 -20 -158 -26 -98
-5 -165 -15 -237 -35 -55 -15 -124 -28 -153 -30 -34 -1 -68 -11 -97 -28 -57
-34 -78 -33 -41 1 18 16 25 28 17 31 -19 6 26 40 109 81 115 58 163 68 329 70
74 1 134 -4 175 -15z m9666 -15 c0 -6 -4 -7 -10 -4 -5 3 -10 11 -10 16 0 6 5
7 10 4 6 -3 10 -11 10 -16z m-10703 -81 c-3 -7 -5 -2 -5 12 0 14 2 19 5 13 2
-7 2 -19 0 -25z m-1324 -30 c26 -28 36 -58 19 -58 -15 0 -30 23 -25 37 4 11 0
14 -17 11 -27 -4 -40 -28 -15 -28 26 0 14 -34 -13 -38 -17 -3 -22 -8 -18 -20
3 -9 -5 -4 -19 11 -31 35 -32 73 -3 104 26 28 51 23 91 -19z m12066 5 c15 -54
14 -72 -3 -48 -15 23 -26 85 -15 85 5 0 13 -17 18 -37z m-10762 -55 c-3 -8 -6
-5 -6 6 -1 11 2 17 5 13 3 -3 4 -12 1 -19z m388 2 c-10 -11 -20 -18 -23 -16
-5 6 21 35 32 36 5 0 1 -9 -9 -20z m1183 6 c15 -8 37 -25 49 -38 26 -28 98
-177 89 -185 -4 -5 -116 -53 -123 -53 0 0 -13 39 -28 88 -14 48 -33 107 -41
131 -8 25 -14 51 -14 58 0 17 34 17 68 -1z m-525 -21 c31 -10 57 -22 57 -27 0
-4 -26 -9 -57 -9 -32 -1 -49 -3 -38 -6 41 -8 120 -34 135 -43 10 -7 -21 -10
-95 -10 -120 0 -278 -20 -365 -45 -30 -9 -77 -22 -103 -28 -27 -7 -44 -17 -40
-21 4 -5 2 -6 -5 -2 -8 5 -34 -6 -67 -28 -30 -20 -59 -36 -65 -36 -5 0 -25
-16 -44 -35 -20 -19 -41 -35 -48 -35 -7 0 0 12 15 26 17 16 26 32 23 41 -4 11
-2 13 9 9 8 -3 15 0 15 7 0 7 9 19 20 27 11 8 20 20 20 27 0 7 5 13 11 13 5 0
24 15 42 34 68 73 171 129 292 160 45 11 231 -1 288 -19z m-956 -37 c-3 -7 -5
-2 -5 12 0 14 2 19 5 13 2 -7 2 -19 0 -25z m12029 -33 c-9 -9 -16 -13 -16 -8
0 12 22 34 28 28 2 -2 -3 -11 -12 -20z m-12016 -21 c-6 -14 -10 -37 -10 -51 0
-15 -3 -23 -7 -20 -10 11 -5 67 8 83 17 21 20 17 9 -12z m1706 -31 c23 -15 75
-59 116 -98 258 -243 554 -420 982 -589 146 -58 293 -105 496 -157 85 -23 189
-51 230 -64 41 -13 129 -40 195 -60 155 -47 156 -48 125 -53 -59 -10 -424 52
-670 113 -246 61 -465 139 -705 251 -196 90 -485 276 -605 388 -94 88 -90 65
5 -29 107 -107 200 -177 350 -267 408 -243 888 -400 1475 -484 230 -32 403
-62 452 -76 38 -11 76 -43 65 -54 -15 -16 -223 -3 -597 36 -179 19 -559 100
-735 157 -392 127 -857 384 -1008 556 -84 95 -186 278 -174 311 3 8 -1 20 -10
28 -19 16 -63 106 -63 130 0 16 2 16 18 3 9 -8 36 -27 58 -42z m8843 -50 c0
-14 -2 -15 -6 -3 -3 8 -14 27 -24 42 -11 14 -19 32 -19 39 0 8 11 -3 25 -23
14 -20 25 -45 24 -55z m1547 56 c10 -18 -21 -42 -45 -34 -23 7 -28 30 -8 38
22 9 46 7 53 -4z m-11980 -51 c-9 -12 -16 -17 -16 -10 0 14 23 42 29 37 1 -2
-4 -14 -13 -27z m884 16 c36 -8 75 -18 87 -21 12 -3 29 -13 38 -23 15 -17 11
-18 -97 -20 -62 -1 -140 -5 -173 -9 l-60 -8 62 -2 c70 -1 202 -25 233 -41 11
-6 18 -15 15 -21 -4 -5 2 -9 12 -9 11 0 28 -7 39 -15 17 -14 9 -15 -86 -9
-205 12 -429 -33 -604 -122 -26 -14 -49 -24 -50 -22 -1 2 -8 12 -16 22 -14 18
-13 19 15 12 19 -4 25 -3 16 2 -14 10 -13 12 37 38 26 14 26 14 -18 8 l-45 -6
57 35 c32 19 63 37 70 40 8 4 7 6 -5 6 -25 1 -153 -69 -190 -104 -18 -16 -49
-50 -69 -75 -20 -24 -40 -42 -44 -38 -3 4 1 14 10 23 9 9 16 23 16 31 0 8 -16
-4 -36 -26 -51 -56 -55 -42 -7 23 52 68 166 170 251 224 166 106 373 147 542
107z m9932 -45 c-3 -45 -22 -80 -41 -77 -21 5 -19 60 4 94 22 34 41 25 37 -17z
m-10870 -70 c-55 -123 -53 -119 -46 -74 6 43 30 100 53 127 25 29 23 14 -7
-53z m10517 11 c0 -9 -4 -8 -9 5 -5 11 -9 27 -9 35 0 9 4 8 9 -5 5 -11 9 -27
9 -35z m-8950 -7 c11 -10 41 -65 67 -123 26 -58 51 -110 56 -116 10 -14 -11
-24 -48 -24 -34 0 -110 -36 -127 -59 -12 -18 -16 -11 -45 82 -42 135 -50 179
-41 203 8 23 46 41 110 53 4 0 16 -7 28 -16z m-3345 -165 c25 -62 52 -133 60
-158 8 -25 35 -82 60 -128 25 -46 47 -91 50 -100 3 -9 4 -6 1 8 -2 14 -11 47
-21 73 -9 26 -15 50 -12 52 2 3 51 14 109 25 94 19 351 78 824 188 94 22 202
49 242 60 58 16 74 17 83 7 17 -20 42 -117 33 -126 -9 -9 -47 -19 -328 -84
-88 -21 -194 -47 -235 -57 -41 -11 -93 -24 -115 -29 -22 -4 -83 -19 -135 -33
-71 -18 -86 -24 -59 -25 19 -1 60 6 90 14 99 28 123 34 249 66 69 17 150 35
180 40 31 4 83 15 115 24 97 25 198 45 230 45 30 0 32 -3 52 -70 23 -81 26
-77 -62 -100 -27 -7 -54 -17 -60 -21 -5 -5 -20 -9 -35 -9 -14 0 -124 -25 -245
-56 -121 -31 -242 -60 -270 -65 -27 -5 -77 -16 -110 -24 -115 -31 -213 -53
-242 -54 -21 -1 -15 -21 6 -21 10 0 72 14 137 31 66 17 137 35 159 39 22 5 47
11 56 15 8 3 58 15 110 26 112 24 125 27 304 73 181 47 276 67 286 60 4 -2 16
-30 26 -60 14 -45 15 -57 4 -63 -7 -5 -137 -39 -289 -76 -447 -108 -631 -154
-732 -180 -56 -15 -116 -24 -145 -23 -54 3 -48 -4 -104 118 -31 67 -44 61 -15
-7 43 -98 61 -128 89 -145 37 -22 60 -23 116 -2 41 14 802 207 1008 254 76 18
95 20 102 9 18 -30 39 -192 39 -304 0 -66 -9 -232 -20 -370 -12 -146 -20 -343
-20 -473 0 -123 -5 -301 -11 -395 l-10 -172 -50 -98 c-36 -71 -63 -146 -98
-275 -45 -161 -52 -208 -31 -185 4 4 22 55 39 113 74 247 147 388 252 486 83
77 137 94 306 94 l137 0 -30 -32 c-17 -18 -41 -48 -53 -65 -23 -34 -51 -44
-51 -19 0 8 16 28 35 45 62 54 4 30 -68 -28 -16 -14 -16 -15 2 -35 11 -12 23
-33 26 -48 7 -27 6 -28 -31 -28 -68 -1 -208 -30 -234 -49 -19 -14 -25 -28 -26
-58 -1 -44 -10 -64 -27 -62 -26 3 -35 -2 -45 -28 -17 -44 -55 -261 -49 -283 5
-19 0 -20 -156 -20 -125 0 -158 3 -149 12 8 8 12 52 12 132 0 150 28 412 55
513 l12 48 11 -40 c6 -22 16 -80 23 -130 17 -124 33 -135 22 -15 -18 212 -7
377 52 764 26 171 27 216 6 161 -7 -16 -25 -57 -42 -91 -16 -33 -29 -65 -29
-71 0 -5 -8 -19 -18 -31 -13 -14 -24 -59 -36 -144 -10 -68 -24 -160 -31 -204
-8 -45 -19 -121 -25 -168 -15 -125 -19 -128 -50 -39 -28 83 -59 148 -66 141
-2 -3 14 -85 37 -184 42 -182 52 -317 30 -376 -8 -20 -11 -16 -26 37 -10 33
-27 72 -39 86 -12 14 -35 52 -51 85 -17 32 -33 61 -37 62 -5 2 -8 10 -8 18 0
8 -4 14 -10 14 -5 0 -10 8 -11 18 0 11 -2 12 -6 4 -3 -7 0 -19 7 -26 6 -8 7
-16 3 -19 -5 -3 -42 43 -84 101 -105 149 -338 468 -422 581 -84 111 -167 258
-201 355 -123 348 -209 623 -266 851 -21 83 -59 219 -84 304 -47 159 -59 221
-32 169 8 -15 35 -78 60 -140z m1913 60 c-3 -8 -6 -5 -6 6 -1 11 2 17 5 13 3
-3 4 -12 1 -19z m878 -13 c91 -18 146 -37 142 -50 -2 -5 3 -16 12 -23 13 -11
-3 -12 -99 -8 -82 4 -141 1 -205 -10 -49 -9 -124 -22 -165 -29 -41 -7 -112
-27 -158 -44 -46 -17 -94 -31 -107 -31 -42 0 -254 -176 -285 -237 -8 -15 -22
-36 -30 -45 -13 -14 -43 -72 -89 -168 -11 -25 -11 -25 -6 5 3 17 8 48 12 70 8
48 63 155 110 213 164 202 374 328 598 361 90 13 192 12 270 -4z m9985 -14
c19 -5 89 -26 155 -46 66 -20 158 -47 205 -60 47 -13 141 -40 210 -60 308 -90
547 -155 572 -155 26 0 23 -14 -26 -109 -24 -48 -61 -133 -81 -191 -50 -141
-73 -190 -90 -196 -13 -5 -58 9 -430 134 -82 28 -190 62 -240 77 -49 14 -151
45 -225 69 -74 24 -156 49 -182 56 -26 7 -52 18 -57 24 -11 13 4 79 23 104 13
17 53 8 286 -69 63 -20 151 -47 195 -58 44 -12 91 -25 105 -30 14 -5 88 -29
165 -54 300 -95 298 -95 321 -41 8 20 18 58 21 84 5 43 3 50 -18 63 -31 19
-232 87 -259 87 -11 0 -28 4 -38 9 -9 5 -57 22 -107 37 -49 15 -99 30 -110 34
-77 27 -123 40 -145 40 -20 -1 -16 -4 15 -14 58 -19 281 -89 420 -131 247 -76
246 -75 224 -144 -25 -79 -29 -83 -73 -76 -23 3 -126 33 -231 66 -104 33 -203
64 -220 68 -51 15 -206 61 -288 87 -43 13 -85 24 -93 24 -8 0 -22 4 -32 10 -9
5 -43 19 -75 31 l-58 21 7 36 c4 20 11 45 15 54 5 9 9 26 9 37 0 25 14 26 72
7 123 -40 219 -66 244 -65 20 1 23 3 9 6 -11 2 -66 20 -122 39 -56 19 -111 34
-122 34 -12 0 -31 6 -44 13 -12 6 -23 12 -25 13 -1 0 5 33 14 72 18 80 24 83
104 63z m-10941 -71 c-13 -16 -24 -28 -26 -26 -8 8 21 56 34 56 10 0 7 -9 -8
-30z m10451 -69 c0 -74 -17 -55 -25 29 -6 60 -5 64 9 46 10 -13 16 -40 16 -75z
m-10489 -12 l-10 -24 0 26 c-1 14 2 29 6 33 12 12 14 -9 4 -35z m1101 7 c10
-5 16 -12 13 -16 -3 -5 15 -16 40 -26 25 -9 45 -20 45 -24 0 -4 -78 -10 -172
-13 -156 -5 -199 -11 -263 -37 -50 -20 -144 -50 -157 -50 -27 0 -118 -32 -113
-40 3 -4 -9 -10 -25 -13 -16 -4 -43 -21 -59 -38 -17 -17 -37 -29 -44 -26 -9 3
-14 -1 -13 -11 1 -10 -7 -17 -21 -18 -20 -1 -72 -49 -73 -66 0 -4 -13 -20 -28
-35 -32 -32 -84 -115 -100 -158 -5 -16 -21 -70 -33 -120 -22 -83 -24 -87 -27
-50 -6 66 18 186 49 245 26 50 109 150 124 150 4 0 30 19 58 43 48 40 141 105
191 134 18 11 19 13 3 13 -25 0 -130 -53 -189 -95 -26 -19 -51 -35 -54 -35 -4
0 -31 -26 -60 -57 -62 -65 -73 -60 -16 7 58 70 104 111 118 106 7 -3 11 0 8 7
-5 14 121 101 212 146 72 35 171 70 234 81 54 10 328 7 352 -4z m628 -88 c23
-38 128 -302 158 -398 11 -36 37 -119 57 -185 21 -66 38 -124 39 -129 0 -5
-24 -14 -54 -21 -30 -7 -69 -16 -86 -20 -37 -8 -31 -19 -99 200 -25 83 -50
159 -55 170 -29 64 -104 297 -107 338 -5 46 -4 48 29 62 18 8 48 14 66 15 26
0 36 -6 52 -32z m-1640 -28 c0 -6 -4 -18 -9 -28 -31 -56 -101 -221 -102 -238
-1 -15 -3 -13 -8 6 -4 14 -4 41 1 61 18 84 118 252 118 199z m1843 -68 c23
-15 76 -48 117 -72 41 -23 92 -54 112 -67 21 -12 40 -23 43 -23 2 0 27 -13 53
-30 99 -61 412 -199 562 -248 458 -150 836 -199 1800 -232 296 -10 2414 -6
2498 5 187 24 344 53 514 96 131 33 158 35 158 15 0 -25 -95 -71 -330 -160
-326 -123 -481 -166 -680 -190 -290 -34 -414 -37 -1845 -38 l-1430 -2 -165 27
c-209 33 -257 45 -482 113 -344 105 -651 269 -820 437 -42 42 -91 151 -122
267 -14 52 -28 103 -31 113 -10 24 0 22 48 -11z m-858 8 l50 -7 -42 -2 c-41
-1 -72 -20 -36 -22 16 0 16 -1 -2 -9 -11 -5 -32 -9 -47 -9 -16 -1 -28 -5 -28
-11 0 -5 -8 -10 -19 -10 -18 0 -149 -44 -158 -54 -3 -2 56 -2 130 1 112 5 144
3 193 -12 62 -19 97 -42 88 -56 -3 -5 -49 -9 -103 -9 -117 0 -371 -51 -458
-93 -54 -25 -31 21 26 53 30 16 5 19 -38 4 -152 -52 -304 -169 -392 -299 -19
-28 -47 -84 -64 -125 -28 -71 -30 -73 -33 -41 -6 56 16 122 64 195 60 90 178
213 221 228 20 7 32 17 29 25 -4 9 2 12 17 10 12 -2 16 -2 10 0 -7 3 -13 8
-13 11 0 17 132 87 240 126 8 3 -16 3 -55 0 l-70 -6 40 32 c22 18 56 40 75 48
79 35 257 51 375 32z m11126 -135 c-16 -50 -55 -162 -86 -250 -31 -88 -62
-178 -69 -200 -16 -49 -129 -330 -162 -403 -13 -29 -24 -55 -24 -58 0 -3 -19
-38 -43 -77 -24 -40 -67 -119 -97 -177 -29 -58 -66 -127 -82 -154 -16 -27 -44
-92 -62 -145 -33 -96 -74 -196 -140 -346 -28 -63 -40 -80 -56 -79 -13 0 -20
-6 -20 -18 0 -10 4 -18 9 -18 5 0 11 -24 14 -52 4 -57 -27 -172 -46 -165 -8 2
-38 77 -92 232 -8 22 -23 82 -35 134 -11 51 -31 117 -44 145 -34 75 -56 215
-45 297 22 174 81 332 149 393 46 42 57 43 102 16 41 -25 77 -28 58 -5 -7 8
-18 15 -25 15 -7 0 -18 7 -25 15 -10 12 -4 29 30 91 50 92 42 118 -16 47 -21
-26 -68 -77 -104 -113 -90 -89 -158 -230 -195 -405 -6 -28 -9 -25 -34 45 -67
181 -108 223 -57 57 40 -130 46 -161 61 -347 17 -199 32 -620 21 -620 -13 0
-202 424 -216 486 -5 22 -14 92 -20 155 -26 279 -87 532 -166 689 -29 56 -26
332 5 465 29 125 79 286 94 302 9 8 47 0 157 -37 126 -41 302 -96 590 -185 41
-13 100 -33 130 -45 69 -28 225 -78 266 -86 38 -7 41 -3 88 116 38 95 137 292
179 356 36 54 39 24 8 -71z m-1824 13 c-3 -8 -6 -5 -6 6 -1 11 2 17 5 13 3 -3
4 -12 1 -19z m-10237 -118 c0 -5 -5 -10 -11 -10 -5 0 -7 5 -4 10 3 6 8 10 11
10 2 0 4 -4 4 -10z m1030 -27 c-64 -6 -68 -17 -11 -33 55 -15 74 -37 38 -44
-12 -3 -66 -12 -120 -20 -118 -19 -276 -70 -359 -116 -11 -6 -19 -6 -24 1 -3
6 -14 9 -24 6 -13 -3 -17 0 -13 9 7 20 -16 17 -62 -6 -40 -20 -40 -20 15 29
66 60 224 145 306 165 36 9 106 14 179 13 66 0 100 -2 75 -4z m-1086 -69 c-19
-45 -30 -73 -37 -94 -3 -9 -6 -6 -6 8 -1 13 11 48 25 78 29 62 44 68 18 8z
m10053 -6 c-3 -8 -6 -5 -6 6 -1 11 2 17 5 13 3 -3 4 -12 1 -19z m190 0 c-3 -8
-6 -5 -6 6 -1 11 2 17 5 13 3 -3 4 -12 1 -19z m-127 -80 c22 -42 25 -52 10
-43 -12 7 -50 84 -50 99 0 13 14 -6 40 -56z m-8930 6 c2 -3 -2 -9 -9 -13 -9
-6 0 -13 30 -23 l44 -15 -88 -6 c-142 -11 -339 -51 -514 -103 -35 -10 -29 20
10 50 75 58 197 102 332 120 35 5 188 -3 195 -10z m8227 -40 c-3 -3 -12 -4
-19 -1 -8 3 -5 6 6 6 11 1 17 -2 13 -5z m-7380 -47 c106 -80 264 -162 468
-245 92 -37 144 -54 374 -127 195 -61 451 -99 781 -114 1126 -54 1681 -60
2275 -26 742 43 1027 94 1543 271 122 43 173 50 157 23 -4 -5 -77 -56 -163
-113 -87 -57 -178 -121 -205 -143 -103 -86 -283 -165 -462 -203 -325 -68 -586
-80 -1791 -80 -900 0 -1121 5 -1279 30 -55 9 -93 18 -320 79 -43 12 -118 25
-165 30 -47 5 -134 15 -195 22 -73 7 -137 21 -190 41 -118 44 -139 46 -90 12
115 -79 17 -79 -144 0 -25 13 -86 43 -136 68 -49 25 -121 58 -160 73 -101 39
-228 100 -241 116 -6 8 -16 28 -22 44 -6 17 -31 87 -56 158 -25 70 -43 127
-41 127 3 0 31 -20 62 -43z m-873 -26 c8 -13 -19 -21 -67 -21 -23 0 -49 -5
-57 -10 -10 -7 9 -10 65 -11 92 -1 131 -10 127 -29 -2 -7 3 -17 10 -21 8 -5
-17 -9 -59 -9 -39 0 -75 -4 -78 -10 -3 -5 -15 -10 -26 -10 -10 0 -19 -4 -19
-10 0 -5 20 -10 44 -10 53 0 196 -26 208 -38 5 -5 -47 -14 -114 -21 -143 -14
-298 -50 -418 -96 -118 -44 -153 -55 -159 -50 -11 12 87 82 192 138 43 22 46
26 27 32 -20 6 -21 7 -3 21 10 7 26 14 36 14 9 0 17 4 17 9 0 8 -67 -7 -125
-28 l-30 -11 30 25 c17 14 36 25 43 25 6 0 12 4 12 9 0 5 14 14 32 20 17 6 29
13 26 16 -7 8 -162 -49 -205 -75 -20 -12 -45 -18 -57 -15 -11 2 -15 2 -8 -1
16 -8 15 -24 -2 -24 -12 0 -32 29 -24 35 128 91 217 130 363 159 41 8 214 6
219 -3z m9022 -36 c7 -22 8 -38 2 -41 -13 -8 -14 -5 -21 39 -7 47 5 48 19 2z
m-9835 -77 c-26 -27 -28 -16 -3 17 9 13 18 19 20 14 2 -4 -6 -18 -17 -31z
m1564 -43 c0 -5 4 -16 9 -24 10 -15 -8 -31 -35 -31 -9 0 -35 -6 -57 -14 l-41
-15 11 25 c9 20 9 27 -2 34 -12 7 -12 11 0 25 10 12 27 15 64 13 28 -2 51 -7
51 -13z m-1795 -91 c-13 -105 -18 -124 -32 -124 -7 0 -9 20 -5 58 6 60 35 167
43 159 3 -2 0 -44 -6 -93z m687 60 c-3 -3 -12 -4 -19 -1 -8 3 -5 6 6 6 11 1
17 -2 13 -5z m-517 -86 c-13 -29 -28 -78 -34 -108 -6 -30 -15 -54 -21 -52 -12
4 -10 79 4 95 5 7 12 33 16 59 5 32 11 45 20 42 7 -3 15 3 19 12 4 9 9 14 13
11 3 -4 -5 -30 -17 -59z m1674 24 c37 -42 148 -435 130 -464 -4 -5 -19 11 -34
37 -37 63 -109 149 -141 169 -37 22 -118 144 -126 189 -6 36 -5 37 48 62 64
30 100 32 123 7z m-743 -12 c11 0 19 -4 19 -10 0 -5 -13 -10 -29 -10 -43 0
-66 -10 -49 -22 9 -6 6 -7 -9 -3 -13 3 -40 -2 -67 -15 -25 -11 -49 -20 -55
-20 -6 0 -52 -19 -103 -42 -88 -40 -166 -87 -251 -152 -77 -59 -44 -16 60 80
59 55 110 101 113 104 51 56 228 107 324 94 16 -2 37 -4 47 -4z m8063 -45
c162 -53 259 -117 390 -257 53 -57 96 -109 96 -116 0 -15 24 -54 57 -95 13
-16 23 -24 23 -17 0 15 -116 198 -146 231 -13 14 -24 28 -24 32 0 37 126 -90
162 -163 15 -30 48 -109 74 -175 38 -94 48 -132 48 -176 -1 -78 -23 -175 -52
-229 -26 -49 -70 -100 -85 -100 -5 0 -26 -13 -46 -28 -45 -35 -119 -70 -191
-91 -63 -18 -183 -23 -269 -11 -83 11 -257 52 -296 69 -80 35 -94 41 -99 41
-11 0 -131 81 -134 91 -2 5 -9 9 -15 9 -16 0 -116 95 -160 150 -55 70 -108
175 -128 253 -24 91 -25 221 -2 279 23 59 170 215 241 255 63 36 104 45 57 12
-35 -24 -20 -22 69 11 68 26 194 47 287 49 46 1 90 -7 143 -24z m-7719 -14
c181 -47 293 -137 372 -299 31 -66 35 -82 35 -155 0 -95 -18 -181 -55 -253
-32 -64 -132 -190 -177 -224 -18 -14 -42 -33 -53 -42 -23 -21 -34 -22 -39 -6
-3 7 -24 -4 -55 -27 -35 -25 -50 -43 -46 -54 4 -12 3 -13 -5 -3 -8 12 -13 12
-33 0 -13 -7 -26 -15 -29 -19 -8 -9 -77 -39 -138 -60 -124 -44 -164 -50 -322
-51 -173 -1 -251 15 -363 75 -98 52 -190 170 -228 291 -16 53 -7 178 19 249
45 126 218 321 383 432 114 77 162 96 296 121 84 15 109 15 186 5 49 -6 92
-10 94 -7 5 5 -11 10 -97 28 l-65 13 40 5 c73 10 199 1 280 -19z m-1154 -4
c-10 -9 -11 -8 -5 6 3 10 9 15 12 12 3 -3 0 -11 -7 -18z m29 -153 c0 -3 -13
-25 -30 -48 -26 -39 -80 -161 -93 -211 -4 -16 -5 -15 -6 6 -2 49 38 152 93
242 10 16 36 24 36 11z m7105 -74 c-12 -20 -143 -89 -205 -109 -36 -11 -99
-25 -140 -31 -41 -6 -83 -14 -92 -16 -31 -9 -20 22 26 73 46 51 73 64 176 81
77 13 243 15 235 2z m-5161 -65 c147 -76 196 -108 172 -113 -28 -6 -341 40
-347 51 0 1 -3 28 -5 60 l-4 57 38 0 c27 0 71 -16 146 -55z m6037 -52 c-32
-58 -78 -164 -90 -209 -19 -67 -13 -117 19 -180 16 -32 30 -63 30 -69 0 -5 11
-23 25 -40 l26 -30 -20 37 c-52 97 -68 244 -38 338 13 40 15 42 20 20 3 -14 8
-51 11 -82 6 -71 19 -112 69 -208 48 -92 81 -139 147 -209 27 -30 50 -61 50
-68 0 -8 7 -16 15 -19 17 -7 21 -54 5 -54 -19 0 -114 76 -167 134 -29 31 -53
52 -53 45 0 -6 54 -66 120 -132 118 -118 121 -121 109 -149 -6 -15 -16 -28
-21 -28 -19 0 -174 119 -229 177 -160 166 -246 402 -196 540 12 33 176 237
184 229 3 -2 -5 -22 -16 -43z m-6116 -67 c52 -14 156 -30 260 -41 80 -8 122
-20 235 -62 136 -51 142 -61 33 -57 -247 11 -503 25 -546 31 -55 7 -62 15 -71
97 -6 57 -6 58 16 52 13 -4 46 -13 73 -20z m1017 -31 c36 -3 120 -20 185 -39
201 -58 238 -61 658 -59 359 2 555 10 759 32 58 7 156 7 275 1 102 -6 366 -14
586 -20 439 -11 544 -17 504 -32 -13 -5 -78 -14 -144 -19 -66 -4 -176 -13
-245 -19 -415 -34 -726 -36 -1755 -10 -384 9 -353 6 -780 85 -71 13 -164 29
-205 35 -120 18 -184 33 -205 47 -17 11 4 13 140 8 88 -3 190 -8 227 -10z
m-822 -145 c69 -6 178 -15 242 -20 64 -6 148 -10 187 -10 38 0 72 -3 75 -8 2
-4 1 -23 -3 -42 -10 -51 -35 -54 -336 -41 -303 14 -381 22 -399 42 -8 8 -17
34 -21 58 l-7 44 68 -6 c38 -4 125 -12 194 -17z m-2615 -25 c116 -68 322 -138
436 -148 25 -2 51 -7 57 -11 6 -3 25 -52 43 -109 18 -56 41 -115 51 -132 26
-44 23 -51 -26 -64 -60 -15 -79 -14 -73 3 6 15 -31 26 -85 26 -39 0 -68 16
-68 38 0 22 39 80 102 153 66 77 61 86 -10 16 l-58 -57 -179 -3 c-164 -2 -184
-4 -224 -24 -25 -13 -49 -23 -54 -23 -5 0 -7 10 -4 23 3 12 8 69 12 127 8 154
15 210 26 210 6 0 30 -11 54 -25z m-1141 -47 c24 -24 81 -92 126 -153 103
-138 96 -130 151 -200 48 -63 132 -196 161 -255 40 -82 123 -277 133 -310 4
-14 14 -33 23 -42 14 -17 0 -18 -290 -18 l-305 0 7 40 c21 116 7 524 -25 704
-23 135 -22 137 25 91 43 -42 52 -38 20 10 -14 22 -16 31 -7 38 9 7 9 10 0 14
-7 2 -13 13 -13 23 0 24 -26 46 -34 28 -3 -7 -4 -1 -1 14 4 22 2 26 -10 22
-10 -4 -15 0 -15 15 0 12 2 21 5 21 3 0 25 -19 49 -42z m4429 -66 c37 -27 98
-68 137 -93 71 -44 84 -65 55 -89 -29 -24 -18 -38 25 -33 32 5 54 -1 116 -32
97 -47 133 -59 274 -95 192 -48 245 -51 1020 -55 399 -2 730 -4 735 -6 40 -12
-1759 -44 -1905 -35 -79 6 -83 5 -54 -8 26 -11 145 -15 615 -20 321 -3 685 -5
808 -6 123 0 222 -3 218 -6 -18 -18 -151 -24 -775 -34 -726 -11 -846 -7 -962
31 -134 44 -224 126 -290 266 -22 46 -40 88 -40 93 0 6 -4 18 -10 28 -13 23
-50 120 -50 132 0 18 14 11 83 -38z m-767 -12 c222 -22 494 -40 577 -39 48 1
89 0 90 -2 2 -2 13 -38 26 -79 55 -177 135 -283 266 -348 149 -74 145 -73 595
-83 544 -12 2776 -3 2863 11 133 21 220 60 322 144 27 22 44 26 170 35 151 12
264 30 335 56 25 9 74 19 110 22 l66 6 32 -37 33 -37 -3 -122 c-3 -118 -4
-122 -28 -134 l-25 -13 25 1 c50 1 61 13 91 99 16 46 29 91 29 102 0 10 6 18
14 18 8 0 31 9 50 21 19 11 40 18 46 14 6 -4 23 -34 39 -68 29 -63 118 -185
181 -246 32 -31 33 -34 11 -28 -52 13 145 -161 209 -186 8 -3 -90 -6 -219 -6
-205 -1 -232 1 -221 14 16 19 0 117 -29 174 -20 37 -71 95 -78 87 -2 -2 10
-26 27 -53 23 -37 34 -71 43 -136 l13 -87 -25 0 c-25 0 -26 3 -28 64 -1 71
-16 107 -63 151 l-31 30 -152 3 c-84 2 -287 -1 -453 -6 -290 -8 -303 -9 -349
-33 -68 -33 -89 -66 -90 -136 0 -79 21 -81 27 -3 6 80 38 115 118 130 75 13
816 32 860 21 76 -17 105 -58 116 -161 l6 -60 -2818 0 c-2384 0 -2815 2 -2799
14 15 10 98 15 356 21 302 6 337 5 342 -9 7 -18 33 -21 42 -6 4 6 -1 22 -10
36 l-17 26 -409 -7 c-306 -6 -409 -5 -409 4 0 18 50 89 68 97 29 13 991 18
1033 5 46 -14 76 -53 85 -110 4 -23 11 -44 17 -48 15 -9 1 90 -18 127 -31 60
-38 61 -548 60 -631 -1 -577 -2 -571 14 3 8 14 16 25 19 11 3 19 9 17 14 -1 4
5 31 15 58 9 28 21 91 27 142 9 82 8 98 -9 145 -11 29 -23 69 -26 88 -8 39
-44 95 -99 154 -20 22 -36 45 -36 51 0 18 12 26 30 20 9 -3 61 -10 116 -15z
m-2630 -15 c8 -20 -15 -171 -32 -212 -7 -18 -18 -33 -25 -33 -7 0 -9 11 -6 33
4 17 9 66 13 107 7 83 18 120 34 120 6 0 13 -7 16 -15z m10887 -82 c63 -90 92
-145 140 -263 60 -147 131 -369 122 -379 -3 -2 -12 11 -22 29 -29 52 -250 381
-285 423 -25 30 -32 46 -32 85 0 51 13 182 19 182 2 0 28 -35 58 -77z m1457
-16 c39 -4 261 -118 253 -131 -4 -6 -6 -21 -5 -33 6 -42 -144 -221 -175 -209
-8 3 -21 6 -29 6 -12 0 -12 4 -4 20 6 12 7 20 1 20 -5 0 -11 -5 -13 -11 -7
-20 -34 3 -78 68 -25 37 -48 74 -52 84 -4 9 -16 20 -27 24 -28 8 -27 29 2 52
32 25 50 61 49 96 -1 27 2 29 26 22 15 -3 38 -7 52 -8z m-4033 -123 c-3 -3
-12 -4 -19 -1 -8 3 -5 6 6 6 11 1 17 -2 13 -5z m593 2 c0 -3 -4 -8 -10 -11 -5
-3 -10 -1 -10 4 0 6 5 11 10 11 6 0 10 -2 10 -4z m-10018 -241 c4 -27 8 -134
10 -238 l3 -187 -388 0 -389 0 64 71 c77 88 232 228 312 281 96 66 268 129
341 125 l40 -2 7 -50z m1541 37 c41 -28 56 -53 57 -96 0 -33 -2 -37 -17 -30
-10 5 -109 10 -220 12 l-201 3 -7 39 c-4 22 -4 43 -1 48 7 11 69 22 186 31
149 13 173 12 203 -7z m492 -140 c75 -81 136 -118 262 -158 107 -34 133 -47
119 -62 -13 -12 -182 19 -250 46 -99 39 -157 94 -195 186 -37 88 -39 111 -8
71 12 -16 45 -54 72 -83z m-464 -12 c17 -10 19 -23 19 -160 l0 -150 -280 0
c-154 0 -280 4 -280 9 0 4 4 21 9 37 5 16 17 74 26 129 10 55 22 108 27 117 9
19 49 23 306 26 91 1 161 -2 173 -8z m200 -39 c96 -64 169 -166 169 -236 0
-18 6 -25 28 -28 15 -2 -42 -5 -127 -6 l-153 -1 6 31 c3 17 6 85 6 150 0 135
1 136 71 90z m7988 -138 c33 -27 77 -57 98 -68 21 -11 51 -30 66 -42 l29 -23
-30 0 c-16 0 -32 6 -35 14 -3 7 -35 34 -71 59 -37 26 -72 51 -79 57 -6 6 -23
19 -36 30 -13 11 -19 20 -13 20 7 0 39 -21 71 -47z m-7467 -114 c101 -9 587
-7 662 2 17 3 31 -1 33 -8 4 -10 -84 -13 -416 -13 l-421 0 0 26 c0 22 2 24 15
14 8 -6 65 -16 127 -21z m10638 -10 c83 -4 65 -5 -80 -5 -102 0 -158 1 -125 3
33 2 64 8 69 13 5 5 14 6 20 2 6 -4 58 -10 116 -13z m-9605 1 c4 -6 -24 -10
-77 -9 -59 1 -75 4 -53 9 45 11 123 11 130 0z m360 0 c4 -6 -37 -9 -117 -8
-114 1 -117 2 -48 8 123 11 158 11 165 0z m6535 -4 c14 -2 -36 -3 -110 -3 -78
0 -114 3 -85 6 47 6 140 4 195 -3z m725 4 c3 -5 -3 -10 -15 -10 -12 0 -18 5
-15 10 3 6 10 10 15 10 5 0 12 -4 15 -10z m270 0 c4 -6 -6 -10 -22 -9 -25 0
-26 1 -8 9 11 5 21 9 22 9 1 1 5 -3 8 -9z m1104 -6 c2 -2 -91 -4 -208 -4 -128
0 -210 4 -206 9 5 9 404 3 414 -5z m260 0 c2 -2 -38 -4 -90 -3 -57 1 -84 4
-69 8 23 7 150 3 159 -5z m-10906 -1 c-7 -2 -19 -2 -25 0 -7 3 -2 5 12 5 14 0
19 -2 13 -5z m9074 1 c-3 -3 -12 -4 -19 -1 -8 3 -5 6 6 6 11 1 17 -2 13 -5z
m390 0 c-3 -3 -12 -4 -19 -1 -8 3 -5 6 6 6 11 1 17 -2 13 -5z m441 -1 c-32 -2
-86 -2 -120 0 -35 2 -9 3 57 3 66 0 94 -1 63 -3z m220 0 c-27 -2 -69 -2 -95 0
-27 2 -5 3 47 3 52 0 74 -1 48 -3z"/>
<path d="M2461 9434 c0 -11 3 -14 6 -6 3 7 2 16 -1 19 -3 4 -6 -2 -5 -13z"/>
<path d="M2391 9298 c-5 -18 -11 -71 -13 -118 -2 -74 0 -85 15 -88 15 -3 17 8
17 117 0 67 -2 121 -4 121 -3 0 -9 -15 -15 -32z"/>
<path d="M11076 13565 c4 -8 11 -15 16 -15 6 0 5 6 -2 15 -7 8 -14 15 -16 15
-2 0 -1 -7 2 -15z"/>
<path d="M11101 13534 c2 -5 38 -61 80 -124 41 -63 88 -139 104 -169 16 -29
31 -48 33 -43 2 6 -8 29 -22 51 -14 22 -26 43 -26 46 0 11 -149 233 -161 241
-6 4 -10 3 -8 -2z"/>
<path d="M11339 13144 c12 -19 21 -43 22 -52 0 -10 3 -12 6 -5 6 15 -28 92
-40 93 -5 0 0 -16 12 -36z"/>
<path d="M11380 13056 c0 -8 4 -17 9 -20 5 -4 7 3 4 14 -6 23 -13 26 -13 6z"/>
<path d="M7390 12833 c-118 -4 -448 -29 -555 -44 -284 -37 -491 -76 -422 -78
19 -1 23 -16 7 -26 -5 -3 -10 -28 -10 -55 0 -35 -4 -50 -16 -54 -12 -5 -14 -9
-5 -20 12 -14 5 -46 -10 -46 -5 0 -9 -3 -9 -8 0 -4 57 -2 128 5 373 36 490 45
775 58 599 28 1080 13 1747 -54 89 -10 306 -44 375 -61 22 -5 81 -16 130 -25
50 -9 106 -21 125 -25 19 -5 64 -16 100 -25 36 -9 108 -28 160 -41 52 -14 115
-29 140 -34 49 -9 103 -26 136 -42 12 -5 30 -8 40 -5 13 3 11 5 -8 6 -16 0
-28 5 -28 9 0 5 -16 14 -35 22 -40 16 -43 27 -15 72 25 41 25 57 3 74 -15 11
-16 13 -2 14 8 0 20 -5 27 -12 9 -9 15 -9 24 0 9 9 8 12 -5 12 -9 0 -17 5 -17
11 0 7 10 9 26 5 37 -10 26 15 -12 27 -16 5 -42 14 -59 21 -40 17 -82 31 -130
45 -22 6 -71 19 -110 30 -38 11 -101 27 -140 36 -38 8 -83 20 -100 25 -34 10
-208 48 -275 61 -188 34 -234 41 -305 50 -44 5 -114 14 -155 19 -364 46 -634
60 -1085 58 -187 -1 -383 -3 -435 -5z m2765 -353 c-3 -5 -10 -10 -16 -10 -5 0
-9 5 -9 10 0 6 7 10 16 10 8 0 12 -4 9 -10z"/>
<path d="M6345 12550 c-3 -5 1 -10 9 -10 9 0 16 5 16 10 0 6 -4 10 -9 10 -6 0
-13 -4 -16 -10z"/>
<path d="M11925 11599 c4 -65 7 -73 48 -122 24 -29 63 -81 86 -117 33 -50 41
-58 36 -35 -4 17 -21 53 -39 80 -60 93 -74 120 -86 175 -18 85 -20 90 -36 90
-11 0 -13 -14 -9 -71z"/>
<path d="M12110 11281 c0 -7 11 -34 24 -60 13 -25 38 -93 56 -151 17 -58 36
-120 42 -137 11 -38 28 -53 28 -25 0 18 -40 151 -60 197 -4 11 -18 45 -29 75
-23 60 -61 123 -61 101z"/>
<path d="M10053 11453 c9 -2 23 -2 30 0 6 3 -1 5 -18 5 -16 0 -22 -2 -12 -5z"/>
<path d="M10106 11441 c13 -11 125 -41 155 -40 15 0 6 6 -26 15 -27 8 -64 19
-81 25 -38 11 -61 12 -48 0z"/>
<path d="M12485 7720 c4 -6 11 -8 16 -5 14 9 11 15 -7 15 -8 0 -12 -5 -9 -10z"/>
<path d="M11035 6229 c-11 -16 -1 -19 13 -3 7 8 8 14 3 14 -5 0 -13 -5 -16
-11z"/>
<path d="M10546 5530 c-10 -10 -16 -25 -13 -32 4 -10 6 -10 6 0 1 8 10 10 29
6 17 -4 23 -2 14 3 -7 6 -10 17 -6 26 8 22 -6 21 -30 -3z"/>
<path d="M12828 5413 c6 -2 18 -2 25 0 6 3 1 5 -13 5 -14 0 -19 -2 -12 -5z"/>
<path d="M5561 5124 c0 -11 3 -14 6 -6 3 7 2 16 -1 19 -3 4 -6 -2 -5 -13z"/>
<path d="M4240 3352 c0 -11 39 -47 44 -41 2 2 -7 14 -20 27 -13 12 -24 19 -24
14z"/>
<path d="M3048 3333 c7 -3 16 -2 19 1 4 3 -2 6 -13 5 -11 0 -14 -3 -6 -6z"/>
<path d="M1196 2861 c-3 -4 -19 -11 -36 -14 -23 -5 -30 -12 -30 -29 1 -21 2
-22 14 -6 14 19 53 37 106 48 l35 8 -42 1 c-23 0 -44 -3 -47 -8z"/>
<path d="M1147 2748 c8 -46 13 -48 13 -5 0 21 -4 37 -10 37 -5 0 -7 -14 -3
-32z"/>
<path d="M5590 2234 c110 -28 238 -45 260 -33 10 6 4 8 -21 9 -19 0 -76 8
-125 19 -49 10 -116 21 -149 25 -57 5 -55 4 35 -20z"/>
<path d="M7073 2090 c-298 -3 -544 -8 -548 -12 -4 -3 26 -9 67 -13 101 -9
2436 2 2523 12 l70 8 -55 7 c-58 8 -1154 7 -2057 -2z"/>
<path d="M9325 1774 c-39 -20 -42 -24 -19 -24 10 0 30 9 44 20 30 23 17 26
-25 4z"/>
<path d="M3608 2343 c6 -2 18 -2 25 0 6 3 1 5 -13 5 -14 0 -19 -2 -12 -5z"/>
<path d="M3548 2323 c7 -3 16 -2 19 1 4 3 -2 6 -13 5 -11 0 -14 -3 -6 -6z"/>
<path d="M3573 2273 c9 -2 23 -2 30 0 6 3 -1 5 -18 5 -16 0 -22 -2 -12 -5z"/>
<path d="M3528 2223 c6 -2 18 -2 25 0 6 3 1 5 -13 5 -14 0 -19 -2 -12 -5z"/>
<path d="M11650 2045 c-87 -17 -206 -62 -195 -73 5 -5 -5 -14 -103 -99 -56
-49 -79 -52 -43 -7 34 44 13 42 -28 -2 -37 -39 -39 -43 -51 -155 -7 -63 -10
-123 -7 -134 2 -11 5 -3 6 20 2 52 25 140 46 171 9 14 32 32 52 40 19 9 56 34
82 58 70 65 129 100 211 128 102 34 177 41 285 24 200 -30 339 -138 406 -315
22 -58 17 -159 -9 -213 -13 -27 -27 -48 -30 -48 -4 0 -7 43 -8 95 -1 87 -4
102 -33 160 -47 93 -169 195 -219 182 -12 -3 -10 -5 6 -6 12 0 22 -5 22 -11 0
-5 17 -21 37 -35 36 -24 32 -35 -5 -16 -9 5 -38 14 -63 20 -26 6 -54 13 -63
17 -11 4 -16 1 -16 -10 0 -9 5 -16 10 -16 6 0 16 -11 22 -25 6 -14 19 -25 28
-25 18 0 29 -31 22 -62 -2 -9 -18 -26 -37 -38 -18 -11 -38 -35 -44 -52 -13
-38 -14 -41 -2 -33 9 5 37 -33 29 -39 -2 -2 -36 -9 -76 -16 -54 -10 -76 -10
-84 -2 -9 9 -8 16 4 29 20 22 20 69 2 105 -17 33 -18 70 -3 85 7 7 12 29 13
50 1 29 6 40 24 48 30 13 28 23 -10 41 -32 15 -31 15 42 10 41 -3 85 -8 98
-12 12 -3 22 -2 22 3 0 10 -52 21 -145 29 -58 6 -133 -10 -195 -41 -133 -67
-152 -178 -56 -319 47 -67 135 -144 204 -176 25 -12 79 -30 121 -41 68 -17 87
-18 176 -9 131 15 173 38 211 117 24 50 28 70 28 148 1 247 -167 414 -458 454
-96 14 -143 13 -226 -4z"/>
<path d="M11462 1863 c-28 -39 -52 -142 -52 -222 0 -73 -17 -111 -51 -111 -29
0 -23 -28 11 -45 16 -8 37 -30 46 -47 31 -59 148 -178 229 -233 170 -114 251
-140 407 -132 86 4 119 11 161 30 143 67 211 193 197 367 -5 58 -7 62 -17 40
-6 -14 -16 -44 -22 -66 -11 -43 -64 -104 -111 -129 -81 -42 -299 -45 -420 -5
-157 52 -308 170 -358 279 -33 73 -38 206 -9 259 23 43 16 52 -11 15z m743
-679 c10 -10 13 -24 9 -38 -8 -25 -3 -21 -41 -34 -26 -9 -34 -7 -48 8 -9 10
-15 29 -13 42 3 21 14 27 70 37 4 0 14 -6 23 -15z"/>
<path d="M12155 1167 c-4 -10 -5 -21 -1 -24 10 -10 18 4 13 24 -4 17 -4 17
-12 0z"/>
<path d="M11242 1500 c0 -19 2 -27 5 -17 2 9 2 25 0 35 -3 9 -5 1 -5 -18z"/>
<path d="M12564 1375 c1 -118 -13 -170 -64 -240 -81 -110 -205 -162 -407 -172
-108 -6 -191 3 -271 29 l-34 10 22 24 c24 25 21 54 -5 54 -9 0 -14 -4 -10 -9
8 -14 -15 -25 -27 -13 -8 8 -8 15 1 25 14 18 -8 40 -32 31 -25 -9 -27 -30 -6
-52 10 -12 15 -24 10 -27 -10 -6 -101 34 -112 48 -3 5 -8 8 -10 7 -10 -4 -59
13 -59 21 0 5 -6 9 -12 9 -16 -1 44 -53 97 -85 121 -73 379 -119 541 -96 104
15 211 52 273 95 51 36 102 124 120 209 13 59 14 160 2 173 -5 5 -11 20 -13
34 -2 14 -4 -20 -4 -75z"/>
<path d="M11356 1277 c3 -10 9 -15 12 -12 3 3 0 11 -7 18 -10 9 -11 8 -5 -6z"/>
<path d="M11420 1210 c18 -16 35 -30 38 -30 3 0 -7 14 -23 30 -16 17 -33 30
-38 30 -5 0 5 -13 23 -30z"/>
<path d="M11500 1146 c0 -2 7 -9 15 -16 9 -7 15 -8 15 -2 0 5 -7 12 -15 16 -8
3 -15 4 -15 2z"/>
<path d="M11632 1128 c-16 -16 -15 -28 3 -28 8 0 15 2 15 4 0 2 3 11 6 20 7
19 -7 21 -24 4z"/>
<path d="M12085 1010 c-4 -6 -3 -14 0 -20 9 -15 35 -12 35 4 0 17 -27 29 -35
16z"/>
<path d="M4088 2033 c6 -2 18 -2 25 0 6 3 1 5 -13 5 -14 0 -19 -2 -12 -5z"/>
<path d="M4153 2013 c9 -2 23 -2 30 0 6 3 -1 5 -18 5 -16 0 -22 -2 -12 -5z"/>
<path d="M4259 1967 c90 -47 164 -116 197 -184 26 -53 28 -68 29 -173 l0 -115
-42 -82 c-67 -132 -143 -219 -263 -298 -143 -94 -249 -133 -430 -156 -256 -32
-487 69 -579 256 -45 91 -39 232 16 334 13 25 22 49 20 54 -6 18 -77 -131 -87
-182 -11 -61 7 -163 42 -237 43 -93 173 -191 293 -222 22 -6 59 -15 81 -21 60
-16 231 -13 316 4 98 21 211 60 278 97 61 34 187 127 210 155 135 163 180 268
180 419 0 123 -28 191 -111 268 -66 60 -159 116 -195 116 -10 0 10 -15 45 -33z"/>
<path d="M3760 1975 c-25 -7 -56 -18 -70 -23 -36 -15 -2 -15 71 0 104 21 275
-14 318 -66 20 -24 0 -21 -78 10 -57 23 -76 26 -156 22 -69 -3 -100 -9 -126
-24 -19 -12 -48 -24 -64 -28 -82 -20 -163 -115 -191 -225 -27 -107 -1 -195 70
-235 105 -61 312 -34 456 59 138 88 205 227 170 350 -16 58 -80 116 -159 146
-69 26 -180 32 -241 14z m91 -90 c0 -12 -109 -46 -131 -42 -8 2 5 13 30 24 68
32 102 38 101 18z m163 -30 c23 -21 26 -31 21 -58 -10 -42 -13 -47 -42 -58
-14 -5 -21 -14 -17 -20 4 -7 0 -17 -9 -24 -9 -6 -22 -29 -29 -51 -11 -33 -21
-43 -73 -68 -33 -16 -69 -32 -80 -37 -32 -12 -105 -18 -105 -8 0 5 -8 9 -17 9
-22 0 -53 29 -53 50 0 9 7 25 15 36 8 10 15 27 15 37 0 9 4 17 9 17 5 0 17 21
27 48 32 84 58 98 174 93 38 -2 51 3 79 28 42 38 50 38 85 6z m36 -160 c10
-12 10 -15 -4 -15 -9 0 -16 7 -16 15 0 8 2 15 4 15 2 0 9 -7 16 -15z"/>
<path d="M4165 1934 c39 -40 59 -98 59 -180 1 -73 -2 -87 -36 -155 -58 -116
-155 -213 -262 -263 -88 -41 -345 -71 -372 -43 -4 4 -18 7 -31 7 -70 0 -168
92 -179 167 -16 110 17 231 92 335 45 63 38 73 -11 16 -76 -89 -157 -313 -127
-351 5 -6 13 -28 17 -47 12 -63 38 -124 81 -191 41 -65 41 -66 21 -79 -20 -12
-20 -13 -2 -26 22 -17 40 -13 40 7 0 20 9 20 50 3 88 -37 201 -43 332 -18 170
32 289 91 397 198 78 78 135 184 118 219 -6 12 -18 64 -26 115 -15 82 -23 103
-70 176 -59 92 -86 126 -99 126 -5 0 -1 -7 8 -16z m-278 -720 c-3 -3 -12 -4
-19 -1 -8 3 -5 6 6 6 11 1 17 -2 13 -5z"/>
<path d="M3237 1654 c-10 -13 -14 -24 -10 -24 9 0 36 40 31 45 -2 2 -11 -8
-21 -21z"/>
<path d="M4380 1670 c0 -5 7 -10 16 -10 8 0 12 5 9 10 -3 6 -10 10 -16 10 -5
0 -9 -4 -9 -10z"/>
<path d="M3300 1231 c0 -24 15 -35 36 -27 12 4 13 10 4 26 -14 26 -40 26 -40
1z"/>
<path d="M3790 1050 c0 -5 7 -10 15 -10 8 0 15 5 15 10 0 6 -7 10 -15 10 -8 0
-15 -4 -15 -10z"/>
<path d="M3674 1035 c-9 -23 5 -35 41 -35 33 0 46 13 37 38 -3 10 -8 9 -23 -4
-17 -15 -19 -15 -25 0 -8 20 -23 21 -30 1z"/>
<path d="M1485 641 c2 -141 6 -176 19 -189 27 -28 31 12 12 142 -32 228 -35
233 -31 47z"/>
<path d="M1717 582 c-15 -70 -28 -130 -27 -133 0 -3 14 -4 30 -1 l30 4 0 129
c0 71 -1 129 -2 129 -2 0 -16 -57 -31 -128z"/>
<path d="M1572 587 c-14 -99 -15 -147 -3 -147 12 0 19 30 27 121 10 112 -9
132 -24 26z"/>
<path d="M6078 1023 c7 -3 16 -2 19 1 4 3 -2 6 -13 5 -11 0 -14 -3 -6 -6z"/>
<path d="M10308 713 c29 -2 74 -2 100 0 26 2 2 3 -53 3 -55 0 -76 -1 -47 -3z"/>
<path d="M9560 678 c-24 -13 -52 -34 -62 -48 -21 -29 -39 -122 -31 -162 9 -45
20 -23 27 50 12 124 56 163 196 173 l85 6 -85 1 c-71 2 -93 -2 -130 -20z"/>
<path d="M5060 670 c0 -5 7 -10 15 -10 8 0 15 5 15 10 0 6 -7 10 -15 10 -8 0
-15 -4 -15 -10z"/>
<path d="M5228 673 c50 -2 134 -2 185 0 50 1 9 3 -93 3 -102 0 -143 -2 -92 -3z"/>
<path d="M6028 673 c7 -3 16 -2 19 1 4 3 -2 6 -13 5 -11 0 -14 -3 -6 -6z"/>
<path d="M6090 653 c49 -34 70 -73 79 -147 4 -29 12 -51 20 -54 11 -4 13 3 8
34 -16 97 -42 145 -95 173 -32 17 -40 13 -12 -6z"/>
<path d="M14930 1005 c-7 -9 -11 -18 -8 -20 3 -3 11 1 18 10 7 9 11 18 8 20
-3 3 -11 -1 -18 -10z"/>
<path d="M2665 861 c-44 -3 -86 -10 -93 -14 -7 -5 -19 -4 -27 3 -20 16 -45 5
-45 -19 0 -11 -6 -21 -12 -24 -39 -14 20 -17 172 -11 135 5 173 10 177 21 15
38 -45 53 -172 44z"/>
<path d="M2482 612 c-15 -10 -52 -113 -52 -144 1 -22 2 -21 28 10 29 35 74 52
135 52 22 0 36 4 32 10 -3 5 -25 7 -49 4 -29 -4 -46 -2 -51 6 -12 19 18 41 63
47 23 3 39 9 36 14 -7 11 -125 12 -142 1z"/>
<path d="M2645 540 c-4 -6 11 -10 37 -9 33 0 38 2 23 9 -28 12 -53 12 -60 0z"/>
<path d="M2660 482 c0 -4 9 -8 20 -8 11 0 20 4 20 8 0 4 -9 8 -20 8 -11 0 -20
-4 -20 -8z"/>
<path d="M2548 453 c6 -2 18 -2 25 0 6 3 1 5 -13 5 -14 0 -19 -2 -12 -5z"/>
<path d="M12422 6100 c0 -19 2 -27 5 -17 2 9 2 25 0 35 -3 9 -5 1 -5 -18z"/>
<path d="M12402 6027 c-39 -95 -60 -138 -89 -189 -18 -31 -33 -59 -33 -62 0
-2 -14 -29 -32 -58 -153 -255 -274 -390 -549 -613 -72 -58 -281 -202 -394
-272 -121 -74 -157 -95 -260 -153 -22 -13 -130 -68 -240 -123 -456 -228 -799
-357 -1265 -475 -268 -68 -249 -64 -435 -96 -457 -80 -919 -111 -1560 -103
-487 5 -840 31 -1220 88 -71 11 -161 24 -200 29 -59 8 -193 35 -345 69 -86 20
-311 82 -375 105 -597 209 -1000 419 -1360 707 -160 128 -273 235 -320 303
-20 28 -49 69 -64 91 -16 22 -37 54 -47 72 -11 17 -58 82 -105 145 -47 62 -98
131 -113 153 -14 22 -26 36 -26 32 0 -9 22 -50 31 -57 3 -3 18 -27 34 -55 35
-65 89 -144 189 -280 45 -60 92 -126 104 -146 25 -42 248 -264 337 -336 139
-113 308 -225 485 -320 41 -22 91 -49 110 -60 31 -18 257 -124 335 -158 684
-295 1344 -423 2416 -467 520 -21 1257 20 1749 98 202 32 598 127 785 189 611
201 1293 562 1745 922 175 140 222 187 390 388 83 100 284 459 326 581 18 53
14 96 -4 51z"/>
<path d="M12362 5769 c-8 -12 -22 -36 -32 -53 -228 -401 -326 -525 -573 -726
-166 -134 -487 -360 -511 -360 -4 0 -23 -11 -44 -23 -91 -58 -666 -357 -686
-357 -3 0 -34 -13 -68 -29 -198 -90 -444 -181 -632 -232 -277 -76 -364 -95
-621 -138 -363 -60 -659 -86 -1130 -101 -629 -19 -1273 18 -1835 106 -274 43
-382 66 -635 135 -194 53 -296 90 -675 244 -290 119 -607 304 -880 515 -103
79 -286 257 -358 349 -37 46 -91 113 -121 150 -52 63 -152 212 -164 242 -3 9
-6 5 -6 -9 -1 -30 90 -185 161 -276 279 -357 456 -514 907 -800 53 -34 325
-173 401 -205 233 -99 474 -192 570 -221 41 -13 109 -33 150 -46 184 -59 615
-150 820 -173 47 -6 119 -15 160 -20 120 -16 519 -49 719 -61 621 -35 1501 15
2032 116 607 114 978 245 1579 555 368 190 621 355 829 539 211 186 324 313
462 519 76 115 203 353 197 372 -2 5 -9 0 -16 -12z"/>
<path d="M3321 5754 c0 -11 3 -14 6 -6 3 7 2 16 -1 19 -3 4 -6 -2 -5 -13z"/>
<path d="M3271 5614 c0 -11 3 -14 6 -6 3 7 2 16 -1 19 -3 4 -6 -2 -5 -13z"/>
<path d="M3323 5514 c36 -119 139 -325 232 -464 126 -187 286 -349 500 -506
210 -155 533 -339 795 -454 52 -23 113 -50 136 -60 22 -11 58 -25 80 -33 21
-8 84 -31 139 -52 185 -69 506 -169 595 -185 25 -5 99 -20 165 -34 234 -50
514 -93 750 -115 61 -6 157 -15 215 -21 457 -43 1327 -41 1751 6 79 8 185 19
234 24 50 4 110 11 135 15 446 69 762 143 1120 262 239 79 783 330 987 454
224 137 447 305 601 453 88 84 116 106 123 95 7 -11 9 -11 9 -1 0 7 6 19 13
27 14 15 59 73 151 196 67 90 186 267 186 278 0 3 9 17 20 31 21 27 25 40 12
40 -5 0 -18 -18 -31 -40 -12 -22 -28 -45 -35 -52 -7 -7 -26 -31 -42 -53 -162
-222 -409 -481 -584 -611 -438 -327 -1218 -711 -1708 -840 -707 -187 -1395
-264 -2260 -251 -593 9 -1134 60 -1607 153 -270 53 -638 161 -890 262 -322
128 -492 208 -667 313 -279 169 -410 263 -602 435 -144 130 -328 343 -379 442
-80 154 -97 189 -97 202 0 9 -4 20 -9 26 -5 5 -11 22 -13 38 -2 16 -9 32 -17
34 -10 3 -12 -1 -8 -14z"/>
<path d="M12281 5494 c0 -11 3 -14 6 -6 3 7 2 16 -1 19 -3 4 -6 -2 -5 -13z"/>
<path d="M12330 5500 c0 -21 -58 -131 -124 -235 -135 -214 -288 -407 -489
-619 -44 -46 -38 -28 6 21 16 17 45 58 65 90 20 32 44 67 54 77 20 22 25 45 5
24 -7 -7 -34 -38 -60 -69 -112 -133 -358 -326 -597 -469 -122 -73 -519 -270
-675 -335 -49 -20 -104 -44 -122 -51 -36 -16 -185 -71 -313 -115 -254 -88
-683 -182 -1065 -233 -931 -124 -2121 -91 -3015 85 -324 63 -786 203 -1004
304 -17 8 -54 23 -81 33 -28 11 -86 37 -130 57 -44 21 -107 50 -140 65 -224
102 -589 331 -760 478 -100 86 -281 274 -330 342 -57 82 -173 284 -194 340 -7
19 -17 44 -21 55 -5 11 -11 27 -13 35 -4 10 -6 8 -6 -6 -2 -59 117 -315 219
-467 169 -254 442 -499 885 -794 214 -143 323 -201 597 -318 102 -44 181 -83
176 -87 -26 -15 -366 117 -555 218 -172 91 -192 103 -368 221 -247 166 -367
261 -554 442 -80 78 -109 101 -80 64 8 -10 23 -29 34 -43 36 -45 189 -196 264
-261 89 -76 256 -203 291 -221 14 -7 60 -35 103 -61 43 -26 154 -88 247 -136
93 -49 205 -114 250 -145 44 -31 116 -81 159 -111 44 -30 81 -55 84 -55 3 0
45 -23 94 -51 48 -28 104 -60 123 -71 88 -50 121 -75 126 -95 4 -13 14 -23 24
-23 10 0 92 -20 182 -44 171 -46 261 -66 418 -92 52 -8 129 -22 170 -29 658
-125 1644 -169 2340 -104 563 52 930 110 1287 204 76 20 171 45 211 55 321 84
621 196 894 334 215 109 333 180 483 292 297 222 478 405 581 589 6 11 35 61
64 110 113 194 227 459 217 508 -4 18 -5 17 -6 -5 0 -14 -4 -28 -8 -30 -5 -1
-37 -59 -72 -128 -76 -150 -151 -265 -221 -340 -50 -54 -53 -39 -5 25 43 58
201 311 233 373 18 35 32 68 30 74 -2 6 -11 -4 -21 -23 -59 -123 -435 -544
-681 -763 -178 -158 -396 -303 -442 -294 -13 2 16 27 101 82 66 43 143 98 170
121 28 23 84 69 125 102 124 100 267 239 374 365 255 300 289 349 413 588 48
94 72 160 59 160 -3 0 -6 -4 -6 -10z"/>
<path d="M1967 5330 c-3 -11 -1 -20 4 -20 5 0 9 9 9 20 0 11 -2 20 -4 20 -2 0
-6 -9 -9 -20z"/>
<path d="M12303 5285 c0 -27 2 -38 4 -22 2 15 2 37 0 50 -2 12 -4 0 -4 -28z"/>
<path d="M3696 5287 c3 -10 9 -15 12 -12 3 3 0 11 -7 18 -10 9 -11 8 -5 -6z"/>
<path d="M3391 4888 c-1 -10 20 -64 45 -122 104 -237 383 -561 659 -766 229
-169 585 -360 880 -471 44 -17 97 -37 118 -45 20 -8 45 -14 55 -14 9 1 1 7
-18 14 -39 15 -99 42 -210 93 -41 19 -91 41 -110 48 -96 35 -468 232 -623 332
-37 24 -71 43 -76 43 -5 0 -11 3 -13 8 -1 4 -32 32 -68 62 -172 144 -338 324
-462 500 -42 60 -154 268 -170 315 -5 16 -6 17 -7 3z"/>
<path d="M50 4034 c0 -4 15 -32 34 -63 41 -67 69 -129 126 -275 56 -145 219
-610 251 -716 13 -41 65 -182 84 -225 7 -16 16 -37 18 -45 3 -8 6 -3 6 12 1
15 -6 44 -15 65 -22 51 -28 66 -59 153 -15 41 -30 84 -34 95 -5 11 -20 58 -35
105 -15 47 -31 94 -36 105 -5 11 -17 45 -26 75 -9 30 -21 59 -25 64 -5 6 -9
19 -9 30 0 11 -16 63 -36 116 -20 52 -52 138 -71 190 -66 178 -138 320 -164
320 -5 0 -9 -3 -9 -6z"/>
<path d="M21 3654 c0 -11 3 -14 6 -6 3 7 2 16 -1 19 -3 4 -6 -2 -5 -13z"/>
<path d="M40 3618 c0 -23 22 -75 26 -62 3 6 -2 26 -10 45 -9 19 -15 26 -16 17z"/>
<path d="M91 3484 c0 -11 3 -14 6 -6 3 7 2 16 -1 19 -3 4 -6 -2 -5 -13z"/>
<path d="M109 3438 c24 -60 40 -92 41 -78 0 20 -33 100 -42 100 -4 0 -4 -10 1
-22z"/>
<path d="M5178 3453 c6 -2 18 -2 25 0 6 3 1 5 -13 5 -14 0 -19 -2 -12 -5z"/>
<path d="M5238 3433 c7 -3 16 -2 19 1 4 3 -2 6 -13 5 -11 0 -14 -3 -6 -6z"/>
<path d="M5343 3403 c9 -2 23 -2 30 0 6 3 -1 5 -18 5 -16 0 -22 -2 -12 -5z"/>
<path d="M162 3320 c0 -14 2 -19 5 -12 2 6 2 18 0 25 -3 6 -5 1 -5 -13z"/>
<path d="M15562 3278 c-84 -180 -122 -261 -144 -313 -15 -33 -35 -80 -46 -105
-10 -25 -32 -73 -47 -108 -15 -34 -26 -65 -23 -67 2 -3 10 5 16 18 33 67 122
259 122 264 0 3 31 71 69 152 39 80 74 158 80 174 17 43 -5 31 -27 -15z"/>
<path d="M181 3274 c0 -11 3 -14 6 -6 3 7 2 16 -1 19 -3 4 -6 -2 -5 -13z"/>
<path d="M211 3184 c0 -11 3 -14 6 -6 3 7 2 16 -1 19 -3 4 -6 -2 -5 -13z"/>
<path d="M231 3144 c0 -11 3 -14 6 -6 3 7 2 16 -1 19 -3 4 -6 -2 -5 -13z"/>
<path d="M41 3139 c-1 -8 6 -24 15 -35 15 -19 15 -19 6 1 -5 11 -12 27 -15 35
-5 13 -6 13 -6 -1z"/>
<path d="M250 3093 c6 -16 14 -37 19 -48 5 -11 16 -37 25 -57 17 -39 30 -52
20 -20 -18 55 -60 152 -66 152 -4 0 -3 -12 2 -27z"/>
<path d="M15597 2925 c-3 -11 -13 -31 -21 -45 -25 -40 -96 -200 -176 -400 -24
-58 -55 -133 -71 -168 -16 -34 -29 -65 -29 -69 0 -3 -20 -47 -44 -97 -51 -106
-68 -146 -86 -201 -7 -22 -26 -69 -42 -105 -17 -36 -39 -85 -50 -110 -10 -25
-28 -64 -39 -88 -22 -49 -23 -52 -8 -52 5 0 17 17 25 38 8 20 24 57 36 82 20
46 43 99 58 135 5 11 18 46 30 79 20 57 37 97 85 201 12 28 33 75 45 105 21
53 31 74 98 220 16 36 39 90 52 120 12 30 39 91 60 135 57 121 93 212 88 226
-3 9 -7 7 -11 -6z"/>
<path d="M351 2860 c-1 -16 39 -128 70 -197 10 -24 19 -46 19 -49 0 -8 59
-149 101 -242 16 -35 29 -65 29 -67 0 -5 68 -154 84 -185 47 -89 80 -145 87
-148 5 -2 9 -11 10 -20 0 -10 3 -12 5 -5 3 7 -11 40 -30 73 -20 34 -36 64 -36
67 0 3 -20 47 -44 97 -23 50 -50 107 -58 126 -9 19 -26 58 -38 85 -12 28 -28
64 -35 80 -7 17 -25 56 -39 87 -14 31 -26 66 -26 77 0 11 -4 22 -9 25 -5 3
-12 17 -15 31 -4 14 -19 54 -35 88 -15 34 -31 69 -34 77 -5 13 -6 13 -6 0z"/>
<path d="M161 2845 c0 -11 6 -29 14 -39 8 -11 15 -15 15 -10 0 6 -4 14 -9 20
-5 5 -11 18 -14 29 l-5 20 -1 -20z"/>
<path d="M190 2755 c0 -5 15 -43 41 -102 11 -24 19 -47 19 -53 0 -5 6 -24 14
-42 8 -18 22 -50 30 -70 16 -35 46 -69 34 -37 -19 50 -79 196 -107 262 -17 40
-31 59 -31 42z"/>
<path d="M581 2677 c-1 -11 5 -33 13 -50 8 -18 30 -77 49 -132 19 -55 37 -107
40 -115 3 -9 6 -5 6 10 1 25 -28 113 -42 126 -4 4 -7 17 -7 29 0 12 -3 25 -7
29 -4 4 -17 33 -30 64 -12 31 -22 49 -22 39z"/>
<path d="M15282 2650 c-5 -14 -26 -60 -46 -103 -20 -43 -36 -85 -36 -92 0 -8
-4 -17 -10 -20 -5 -3 -10 -14 -10 -23 0 -9 14 10 29 43 65 133 92 198 88 209
-3 6 -9 0 -15 -14z"/>
<path d="M90 2485 c0 -14 34 -102 43 -111 4 -4 7 -16 7 -26 0 -10 5 -18 10
-18 6 0 10 -10 11 -22 0 -13 3 -17 6 -10 3 7 -8 43 -23 80 -35 82 -54 120 -54
107z"/>
<path d="M330 2405 c0 -3 4 -13 9 -23 9 -18 13 -27 57 -137 16 -38 34 -81 41
-95 12 -24 13 -24 13 -3 0 12 -4 25 -10 28 -5 3 -10 13 -10 20 0 8 -11 38 -24
67 -13 29 -33 74 -45 101 -18 41 -31 58 -31 42z"/>
<path d="M704 2338 c2 -20 34 -119 71 -219 37 -101 72 -207 78 -236 17 -81 -3
-97 -204 -162 -166 -54 -195 -58 -220 -35 -21 19 -31 38 -70 138 -13 33 -25
52 -27 44 -4 -22 74 -200 95 -215 9 -7 26 -13 37 -13 26 0 233 63 311 95 72
30 81 31 58 6 -22 -22 -72 -47 -178 -89 -139 -54 -190 -65 -232 -51 -33 11
-93 63 -93 81 0 4 -16 43 -36 85 -50 110 -47 104 -110 248 -31 72 -73 168 -94
215 -20 47 -40 92 -43 100 -4 12 -6 12 -6 -2 -1 -20 42 -131 94 -244 37 -78
80 -177 134 -304 57 -132 71 -159 100 -180 64 -45 79 -45 213 0 148 50 228 91
270 138 29 34 30 38 25 101 -6 62 -25 132 -40 147 -4 4 -7 17 -7 29 0 20 -12
57 -40 120 -4 11 -24 63 -43 115 -48 130 -48 130 -43 88z"/>
<path d="M15153 2330 c-3 -17 -10 -33 -14 -36 -5 -3 -8 -15 -8 -27 1 -20 2
-21 6 -2 3 11 9 25 13 30 10 13 22 65 15 65 -3 0 -8 -14 -12 -30z"/>
<path d="M176 2265 c4 -8 8 -15 10 -15 2 0 4 7 4 15 0 8 -4 15 -10 15 -5 0 -7
-7 -4 -15z"/>
<path d="M190 2229 c0 -4 7 -22 15 -40 10 -25 14 -29 15 -13 0 17 -29 70 -30
53z"/>
<path d="M15081 2167 c-11 -24 -21 -51 -21 -60 0 -9 -4 -17 -10 -17 -5 0 -10
-5 -10 -10 0 -6 -23 -57 -51 -115 -28 -58 -49 -110 -47 -116 3 -9 110 204 139
279 5 12 14 33 21 47 6 14 9 27 6 31 -3 3 -15 -15 -27 -39z"/>
<path d="M230 2142 c0 -18 93 -252 99 -247 5 6 -19 87 -31 100 -4 5 -8 15 -8
21 0 18 -59 142 -60 126z"/>
<path d="M455 2105 c4 -11 10 -30 12 -42 3 -13 9 -23 14 -23 5 0 9 -8 9 -17 0
-10 9 -33 20 -50 16 -28 26 -33 56 -33 43 0 104 27 104 45 0 23 -12 45 -21 39
-5 -3 -9 -13 -9 -24 0 -18 -44 -40 -81 -40 -20 0 -47 36 -74 100 -19 45 -46
85 -30 45z"/>
<path d="M821 1834 c0 -11 3 -14 6 -6 3 7 2 16 -1 19 -3 4 -6 -2 -5 -13z"/>
<path d="M14897 1775 c-16 -30 -27 -60 -24 -67 4 -8 6 -7 6 5 1 9 4 17 9 17
10 0 45 76 41 89 -2 6 -17 -14 -32 -44z"/>
</g>
</svg>
